<svg id="non-active-bond-icon" width="20" height="20" viewBox="0 0 20 20" fill="none" xmlns="http://www.w3.org/2000/svg">
<path d="M3.33337 5.83333V14.1667C3.33337 16.0083 6.31837 17.5 10 17.5C13.6817 17.5 16.6667 16.0083 16.6667 14.1667V5.83333M3.33337 5.83333C3.33337 7.675 6.31837 9.16667 10 9.16667C13.6817 9.16667 16.6667 7.675 16.6667 5.83333M3.33337 5.83333C3.33337 3.99167 6.31837 2.5 10 2.5C13.6817 2.5 16.6667 3.99167 16.6667 5.83333M16.6667 10C16.6667 11.8417 13.6817 13.3333 10 13.3333C6.31837 13.3333 3.33337 11.8417 3.33337 10" stroke-width="1.5" stroke-linecap="round" stroke-linejoin="round"/>
</svg>

