<svg id="dashboard-icon" width="20" height="20" viewBox="0 0 20 20" fill="none" xmlns="http://www.w3.org/2000/svg">
    <path d="M3.3335 5.00001C3.3335 4.55798 3.50909 4.13406 3.82165 3.8215C4.13421 3.50894 4.55814 3.33334 5.00016 3.33334H6.66683C7.10886 3.33334 7.53278 3.50894 7.84534 3.8215C8.1579 4.13406 8.3335 4.55798 8.3335 5.00001V6.66668C8.3335 7.1087 8.1579 7.53263 7.84534 7.84519C7.53278 8.15775 7.10886 8.33334 6.66683 8.33334H5.00016C4.55814 8.33334 4.13421 8.15775 3.82165 7.84519C3.50909 7.53263 3.3335 7.1087 3.3335 6.66668V5.00001ZM11.6668 5.00001C11.6668 4.55798 11.8424 4.13406 12.155 3.8215C12.4675 3.50894 12.8915 3.33334 13.3335 3.33334H15.0002C15.4422 3.33334 15.8661 3.50894 16.1787 3.8215C16.4912 4.13406 16.6668 4.55798 16.6668 5.00001V6.66668C16.6668 7.1087 16.4912 7.53263 16.1787 7.84519C15.8661 8.15775 15.4422 8.33334 15.0002 8.33334H13.3335C12.8915 8.33334 12.4675 8.15775 12.155 7.84519C11.8424 7.53263 11.6668 7.1087 11.6668 6.66668V5.00001ZM3.3335 13.3333C3.3335 12.8913 3.50909 12.4674 3.82165 12.1548C4.13421 11.8423 4.55814 11.6667 5.00016 11.6667H6.66683C7.10886 11.6667 7.53278 11.8423 7.84534 12.1548C8.1579 12.4674 8.3335 12.8913 8.3335 13.3333V15C8.3335 15.442 8.1579 15.866 7.84534 16.1785C7.53278 16.4911 7.10886 16.6667 6.66683 16.6667H5.00016C4.55814 16.6667 4.13421 16.4911 3.82165 16.1785C3.50909 15.866 3.3335 15.442 3.3335 15V13.3333ZM11.6668 13.3333C11.6668 12.8913 11.8424 12.4674 12.155 12.1548C12.4675 11.8423 12.8915 11.6667 13.3335 11.6667H15.0002C15.4422 11.6667 15.8661 11.8423 16.1787 12.1548C16.4912 12.4674 16.6668 12.8913 16.6668 13.3333V15C16.6668 15.442 16.4912 15.866 16.1787 16.1785C15.8661 16.4911 15.4422 16.6667 15.0002 16.6667H13.3335C12.8915 16.6667 12.4675 16.4911 12.155 16.1785C11.8424 15.866 11.6668 15.442 11.6668 15V13.3333Z"/>
</svg>

