<svg width="18" height="17" viewBox="0 0 18 17" fill="none" xmlns="http://www.w3.org/2000/svg">
<path d="M11.4536 9.08444C11.1112 10.6107 10.3308 11.9903 9.19325 13.0763C9.47457 13.3282 9.77792 13.5582 10.0935 13.7661C10.1008 13.7587 10.1082 13.7538 10.1131 13.7465C11.2751 12.5847 12.0995 11.1366 12.4933 9.55896C12.6059 9.10645 12.6866 8.63437 12.7282 8.1623C12.7526 7.89079 12.7649 7.61684 12.7649 7.35267C12.7649 4.47618 11.3778 1.74644 9.05625 0.0489192L9.04402 0.039135L9.00243 0L8.94861 0.0489192C6.62461 1.74644 5.23999 4.47618 5.23999 7.35267C5.23999 7.55813 5.24733 7.76849 5.26201 7.98129C5.61917 7.82475 5.98857 7.69022 6.36285 7.5777C6.36041 7.49698 6.35796 7.4236 6.35796 7.35267C6.35796 5.14883 7.29001 3.0257 8.91437 1.5263L9.00243 1.44558L9.0905 1.5263C10.7149 3.0257 11.6445 5.14883 11.6445 7.35267C11.6445 7.45296 11.642 7.56058 11.6371 7.68043C11.6176 8.15251 11.5564 8.62459 11.4536 9.08444Z" fill="url(#paint0_radial_1123_52)"/>
<path d="M2.95761 9.77193C1.29411 11.264 0.247079 13.3113 0.00733868 15.5323L0 15.5934L0.063605 15.6252C1.22316 16.1364 2.45122 16.3957 3.71842 16.3957C5.54093 16.3957 7.28271 15.8625 8.77497 14.8547C8.46184 14.6248 8.16094 14.3704 7.87472 14.0989C6.62709 14.8694 5.1911 15.2779 3.71842 15.2779C2.94048 15.2779 2.17234 15.1654 1.4311 14.9403L1.31612 14.9061L1.24029 14.8841L1.25497 14.818L1.28187 14.7006C1.80294 12.4503 3.27563 10.5449 5.32076 9.47596C5.74153 9.25582 6.18431 9.07237 6.63688 8.93295C7.40014 8.69569 8.19519 8.57583 9.00003 8.57583C9.75839 8.57583 10.507 8.68101 11.2262 8.89137C11.302 8.52447 11.3485 8.14778 11.3705 7.7711C10.5975 7.56074 9.80243 7.45557 9.00003 7.45557C8.16339 7.45557 7.33164 7.57053 6.52924 7.79801C6.07423 7.92764 5.62655 8.09397 5.19844 8.2921C4.38137 8.67123 3.6279 9.16777 2.95761 9.77193Z" fill="url(#paint1_radial_1123_52)"/>
<path d="M14.2816 16.3954C15.5488 16.3954 16.7793 16.1362 17.9389 15.6225L17.9438 15.6201L18 15.598L17.9927 15.532C17.753 13.3086 16.7059 11.2637 15.0424 9.77167C14.4162 9.20909 13.719 8.73946 12.9655 8.37256C12.9239 8.76392 12.8579 9.15039 12.7673 9.52462C14.788 10.6155 16.2313 12.5185 16.7328 14.764L16.7597 14.8814L16.6448 14.9181C15.8815 15.1578 15.0865 15.2776 14.2816 15.2776C12.7747 15.2776 11.3069 14.8496 10.0397 14.0424C9.6385 13.788 9.25932 13.4945 8.91194 13.1741C7.75238 12.1052 6.94999 10.7403 6.5806 9.22377C6.22099 9.34362 5.87116 9.48793 5.53357 9.65915C5.93721 11.1977 6.74939 12.609 7.88693 13.7464C7.90895 13.7684 7.93341 13.7904 7.95543 13.8149L7.97989 13.8394C8.32238 14.172 8.69177 14.4778 9.0734 14.7493C10.5999 15.8255 12.4004 16.3954 14.2816 16.3954Z" fill="url(#paint2_radial_1123_52)"/>
<defs>
<radialGradient id="paint0_radial_1123_52" cx="0" cy="0" r="1" gradientUnits="userSpaceOnUse" gradientTransform="translate(9.00261 6.8809) scale(3.16442 8.99416)">
<stop stop-color="#FCD295"/>
<stop offset="0.1833" stop-color="#FDD192"/>
<stop offset="0.3319" stop-color="#FDCE88"/>
<stop offset="0.4678" stop-color="#FEC877"/>
<stop offset="0.5524" stop-color="#FFC368"/>
<stop offset="0.7171" stop-color="#FFC265"/>
<stop offset="0.8505" stop-color="#FFC05B"/>
<stop offset="0.9725" stop-color="#FFBD4A"/>
<stop offset="1" stop-color="#FFBC45"/>
</radialGradient>
<radialGradient id="paint1_radial_1123_52" cx="0" cy="0" r="1" gradientUnits="userSpaceOnUse" gradientTransform="translate(5.68553 11.9242) scale(4.78162 5.84109)">
<stop stop-color="#FCD295"/>
<stop offset="0.1833" stop-color="#FDD192"/>
<stop offset="0.3319" stop-color="#FDCE88"/>
<stop offset="0.4678" stop-color="#FEC877"/>
<stop offset="0.5524" stop-color="#FFC368"/>
<stop offset="0.7171" stop-color="#FFC265"/>
<stop offset="0.8505" stop-color="#FFC05B"/>
<stop offset="0.9725" stop-color="#FFBD4A"/>
<stop offset="1" stop-color="#FFBC45"/>
</radialGradient>
<radialGradient id="paint2_radial_1123_52" cx="0" cy="0" r="1" gradientUnits="userSpaceOnUse" gradientTransform="translate(11.7671 12.3827) scale(5.24249 5.2418)">
<stop stop-color="#FCD295"/>
<stop offset="0.1833" stop-color="#FDD192"/>
<stop offset="0.3319" stop-color="#FDCE88"/>
<stop offset="0.4678" stop-color="#FEC877"/>
<stop offset="0.5524" stop-color="#FFC368"/>
<stop offset="0.7171" stop-color="#FFC265"/>
<stop offset="0.8505" stop-color="#FFC05B"/>
<stop offset="0.9725" stop-color="#FFBD4A"/>
<stop offset="1" stop-color="#FFBC45"/>
</radialGradient>
</defs>
</svg>
