<svg width="20" height="18" viewBox="0 0 20 18" fill="none" xmlns="http://www.w3.org/2000/svg">
    <path d="M12.575 9.97398C12.199 11.6497 11.3422 13.1644 10.0933 14.3567C10.4022 14.6333 10.7352 14.8858 11.0817 15.114C11.0897 15.106 11.0978 15.1006 11.1032 15.0926C12.379 13.8169 13.2841 12.2271 13.7165 10.495C13.8401 9.99815 13.9287 9.47984 13.9744 8.96154C14.0012 8.66345 14.0146 8.36267 14.0146 8.07264C14.0146 4.91448 12.4918 1.91745 9.94288 0.0537094L9.92945 0.0429671L9.88379 0L9.8247 0.0537094C7.27313 1.91745 5.75293 4.91448 5.75293 8.07264C5.75293 8.29822 5.76099 8.52917 5.7771 8.76281C6.16924 8.59094 6.57481 8.44324 6.98574 8.31971C6.98306 8.23108 6.98037 8.15052 6.98037 8.07264C6.98037 5.653 8.00368 3.32197 9.7871 1.67576L9.88379 1.58713L9.98048 1.67576C11.7639 3.32197 12.7845 5.653 12.7845 8.07264C12.7845 8.18274 12.7818 8.30091 12.7765 8.4325C12.755 8.9508 12.6878 9.4691 12.575 9.97398Z" fill="inherit"/>
    <path d="M3.24722 10.7286C1.42083 12.3668 0.271272 14.6145 0.00805727 17.053L0 17.1201L0.0698331 17.155C1.34293 17.7163 2.69124 18.001 4.08252 18.001C6.08349 18.001 7.99583 17.4155 9.63421 16.3091C9.29042 16.0567 8.96005 15.7774 8.64581 15.4793C7.27601 16.3252 5.69941 16.7737 4.08252 16.7737C3.22841 16.7737 2.38505 16.6501 1.57123 16.4031L1.445 16.3655L1.36173 16.3413L1.37785 16.2688L1.40739 16.1399C1.97948 13.6692 3.59638 11.5772 5.84176 10.4037C6.30373 10.162 6.78987 9.96055 7.28676 9.80747C8.12475 9.54698 8.99766 9.41539 9.88131 9.41539C10.7139 9.41539 11.5358 9.53087 12.3254 9.76182C12.4087 9.35899 12.4597 8.94542 12.4839 8.53186C11.6352 8.3009 10.7623 8.18542 9.88131 8.18542C8.96274 8.18542 8.04955 8.31164 7.16858 8.5614C6.66901 8.70373 6.1775 8.88634 5.70747 9.10387C4.81039 9.52012 3.98314 10.0653 3.24722 10.7286Z" fill="inherit"/>
    <path d="M15.6798 18.001C17.0711 18.001 18.4221 17.7163 19.6952 17.1524L19.7006 17.1497L19.7624 17.1255L19.7543 17.053C19.4911 14.6119 18.3415 12.3668 16.5152 10.7286C15.8276 10.111 15.0621 9.59533 14.2349 9.1925C14.1892 9.62219 14.1167 10.0465 14.0173 10.4574C16.2358 11.6551 17.8205 13.7444 18.3711 16.2097L18.4006 16.3386L18.2744 16.3789C17.4364 16.6421 16.5635 16.7737 15.6798 16.7737C14.0254 16.7737 12.4138 16.3037 11.0226 15.4175C10.5821 15.1382 10.1658 14.816 9.78437 14.4642C8.51127 13.2906 7.63031 11.7921 7.22475 10.1271C6.82992 10.2587 6.44584 10.4171 6.0752 10.6051C6.51836 12.2943 7.41007 13.8438 8.659 15.0926C8.68317 15.1167 8.71003 15.1409 8.7342 15.1678L8.76106 15.1946C9.13708 15.5598 9.54265 15.8955 9.96164 16.1936C11.6376 17.3752 13.6144 18.001 15.6798 18.001Z" fill="inherit"/>
</svg>
