<svg viewBox="0 0 80 124" fill="none" xmlns="http://www.w3.org/2000/svg">
    <g clip-path="url(#clip0_18:195)">
        <path d="M20.2857 93.9502V111.256C20.2857 112.488 20.4627 114.358 20.4627 114.358H20.3925C20.3925 114.358 19.1935 112.385 18.3819 111.256L4.31712 91.9063H2.91064V114.392C2.91064 114.92 2.62995 115.167 2.1357 115.167H0.619385V116.576H2.38282C3.82897 116.576 4.42695 115.978 4.42695 114.532V97.2265C4.42695 95.9941 4.25 94.1241 4.25 94.1241H4.32017C4.32017 94.1241 5.51919 96.0978 6.33073 97.2265L20.3955 116.576H21.8051V94.0905C21.8051 93.5628 22.0858 93.3157 22.58 93.3157H24.0963V91.9063H22.3329C20.8867 91.9063 20.2857 92.5073 20.2857 93.9502Z" fill="url(#paint0_radial_18:195)"/>
        <path d="M30.4361 91.9063H28.8161V94.4779H30.4361V91.9063Z" fill="url(#paint1_radial_18:195)"/>
        <path d="M30.5064 114.462V101C30.5064 99.554 29.9084 98.9561 28.4622 98.9561H26.7354V100.295H28.2517C28.746 100.295 29.0267 100.542 29.0267 101.07V114.532C29.0267 115.978 29.6246 116.576 31.0708 116.576H32.7976V115.237H31.2813C30.7901 115.237 30.5064 114.99 30.5064 114.462Z" fill="url(#paint2_radial_18:195)"/>
        <path d="M50.8072 114.462V93.9502C50.8072 92.5042 50.2093 91.9063 48.7631 91.9063H47.0363V93.2455H48.5526C49.0468 93.2455 49.3275 93.4926 49.3275 94.0204V100.893C49.3275 101.705 49.3977 102.339 49.3977 102.339H49.3275C49.3275 102.339 47.7411 98.5321 43.2989 98.5321C38.6828 98.5321 35.4031 102.162 35.4031 107.766C35.4031 113.23 38.2923 117 43.0152 117C47.8783 117 49.3245 113.193 49.3245 113.193H49.3947C49.3947 113.193 49.3245 113.721 49.3245 114.532C49.3245 115.978 49.9225 116.576 51.3686 116.576H53.0954V115.237H51.5791C51.091 115.237 50.8072 114.99 50.8072 114.462ZM43.0884 115.554C39.4944 115.554 36.956 112.525 36.956 107.766C36.956 102.833 39.7751 99.9414 43.2287 99.9414C47.3536 99.9414 49.3611 103.819 49.3611 107.729C49.3641 113.263 46.3315 115.554 43.0884 115.554Z" fill="url(#paint3_radial_18:195)"/>
        <path d="M71.7092 114.462V105.405C71.7092 101.247 70.4767 98.5321 65.8942 98.5321C61.4886 98.5321 59.0906 101.668 58.4926 103.324H58.4224C58.4224 103.324 58.4926 102.69 58.4926 101.879V93.8434C58.4926 92.5042 57.8946 91.9063 56.4484 91.9063H54.7186V93.2455H56.2349C56.7291 93.2455 57.0098 93.4926 57.0098 94.0204V116.576H58.4895V107.977C58.4895 107.132 58.5597 106.32 58.7702 105.579C59.6519 102.303 62.5778 99.975 65.8911 99.975C69.839 99.975 70.2265 102.864 70.2265 105.93V114.529C70.2265 115.975 70.8245 116.573 72.2706 116.573H73.9974V115.234H72.4811C71.9899 115.237 71.7092 114.99 71.7092 114.462Z" fill="url(#paint4_radial_18:195)"/>
        <path d="M80.3769 115.237C79.8827 115.237 79.602 114.99 79.602 114.462V101C79.602 99.554 79.004 98.9561 77.5579 98.9561H75.8311V100.295H77.3474C77.8416 100.295 78.1223 100.542 78.1223 101.07V114.532C78.1223 115.978 78.7203 116.576 80.1664 116.576H81.8933V115.237H80.3769Z" fill="url(#paint5_radial_18:195)"/>
        <path d="M79.5318 91.9063H77.9118V94.4779H79.5318V91.9063Z" fill="url(#paint6_radial_18:195)"/>
        <path d="M9.90031 50.6357C10.0834 50.8188 10.3244 50.9103 10.5654 50.9103C10.8064 50.9103 11.0475 50.8188 11.2305 50.6357C11.5966 50.2697 11.5966 49.6718 11.2305 49.3057L2.76723 40.8435L14.4798 29.1326C16.5849 37.07 20.5298 46.4779 27.9252 53.8724C30.9975 56.9442 34.6556 59.6317 38.8201 61.8861C34.9881 63.6218 31.1531 64.8482 27.6476 65.7206L16.054 54.1286C16.5971 51.9444 17.2775 49.6321 18.1348 47.2741C18.3117 46.786 18.0616 46.246 17.5734 46.0691C17.0853 45.8922 16.5452 46.1423 16.3683 46.6304C12.1794 58.137 12.0726 68.3471 12.0695 68.7772L12.0634 69.729L13.0153 69.7229C13.5096 69.7198 19.4009 69.6436 27.1106 67.8468L40.9527 81.6871L50.371 72.2701C50.7371 71.904 50.7371 71.3061 50.371 70.9401C50.0048 70.574 49.4069 70.574 49.0408 70.9401L40.9527 79.027L29.2432 67.316C37.1818 65.2112 46.5909 61.2668 53.9863 53.8724C56.0732 51.7858 58.0013 49.4094 59.7129 46.8104C59.9997 46.3772 59.8777 45.7915 59.4444 45.5078C59.0112 45.221 58.4254 45.3431 58.1417 45.7762C56.5003 48.2685 54.6545 50.5442 52.6561 52.5423C49.1292 56.0687 45.0745 58.7776 40.9375 60.8642C36.4251 58.5732 32.4925 55.7789 29.2524 52.5423C25.7255 49.0159 23.0163 44.9618 20.9294 40.8252C23.2207 36.3105 26.0153 32.3783 29.2524 29.1417C36.6326 21.7625 46.3132 17.9432 54.2609 15.9634L65.8484 27.5493C64.9788 31.0483 63.7524 34.8798 62.0194 38.699C59.9417 34.8737 57.3149 31.1368 53.9863 27.8086C51.9788 25.8014 49.7059 23.9436 47.2285 22.2841C46.7953 21.9943 46.2125 22.1102 45.9227 22.5434C45.6329 22.9766 45.7488 23.5592 46.182 23.849C48.5587 25.4384 50.7371 27.2199 52.6561 29.1387C60.0363 36.5179 63.8561 46.1972 65.8361 54.1438L54.2456 65.7328C52.0581 65.1898 49.7394 64.5065 47.381 63.6493C46.8929 63.4724 46.3529 63.7225 46.1759 64.2106C45.999 64.6987 46.2491 65.2386 46.7373 65.4156C58.2485 69.607 68.4661 69.7137 68.8962 69.7168L69.8481 69.7229L69.842 68.7711C69.839 68.2769 69.7627 62.3864 67.9657 54.6777L81.8078 40.8374L72.298 31.3289C71.9319 30.9629 71.3339 30.9629 70.9678 31.3289C70.6017 31.695 70.6017 32.2929 70.9678 32.659L79.1474 40.8374L67.4348 52.5484C66.4494 48.8359 65.0643 44.8062 63.1117 40.8069C69.6803 27.2717 69.839 13.4894 69.8451 12.9037L69.8512 11.952L68.8993 11.9581C68.405 11.9611 62.5106 12.0374 54.804 13.8342L40.9558 0L31.4643 9.4902C31.0982 9.85626 31.0982 10.4542 31.4643 10.8202C31.8304 11.1863 32.4284 11.1863 32.7945 10.8202L40.9558 2.66311L52.6683 14.3741C48.9553 15.3594 44.925 16.7444 40.9253 18.6967C27.3883 12.1259 13.6041 11.9672 13.0184 11.9642L12.0665 11.9581L12.0726 12.9098C12.0756 13.404 12.1519 19.2946 13.9489 27.0033L0.106812 40.8435L9.90031 50.6357ZM13.9855 67.8072C14.074 65.9524 14.3943 61.6359 15.5537 56.2884L25.4906 66.2239C20.1423 67.3862 15.8344 67.7187 13.9855 67.8072ZM67.923 67.8102C66.068 67.7217 61.7479 67.3984 56.4027 66.2422L66.3365 56.3097C67.502 61.6542 67.8345 65.9585 67.923 67.8102ZM67.926 13.8799C67.8376 15.7316 67.5142 20.045 66.3548 25.3957L56.424 15.4662C61.7693 14.3009 66.0741 13.9714 67.926 13.8799ZM38.8171 19.7827C34.9912 21.8601 31.2538 24.4866 27.9252 27.8147C24.8529 30.8866 22.1651 34.5442 19.9135 38.7082C18.1775 34.8767 16.951 31.0422 16.0785 27.5371L27.6659 15.9512C31.1653 16.8206 34.9942 18.0469 38.8171 19.7827ZM25.5058 15.4509L15.572 25.3804C14.4096 20.0359 14.077 15.7285 13.9855 13.8799C15.8405 13.9684 20.1545 14.2917 25.5058 15.4509Z" fill="url(#paint7_radial_18:195)"/>
        <path d="M44.0159 38.4397C43.5887 40.3432 42.6155 42.0637 41.1968 43.4182C41.5476 43.7324 41.926 44.0191 42.3195 44.2784C42.3287 44.2693 42.3378 44.2632 42.3439 44.254C43.7931 42.805 44.8213 40.9991 45.3125 39.0315C45.4528 38.4672 45.5535 37.8784 45.6054 37.2897C45.6359 36.9511 45.6512 36.6094 45.6512 36.2799C45.6512 32.6925 43.9213 29.2881 41.0259 27.1711L41.0107 27.1589L40.9588 27.11L40.8917 27.1711C37.9933 29.2881 36.2665 32.6925 36.2665 36.2799C36.2665 36.5362 36.2756 36.7985 36.2939 37.0639C36.7394 36.8687 37.2001 36.7009 37.6669 36.5606C37.6638 36.4599 37.6608 36.3684 37.6608 36.2799C37.6608 33.5314 38.8232 30.8836 40.849 29.0136L40.9588 28.9129L41.0686 29.0136C43.0945 30.8836 44.2538 33.5314 44.2538 36.2799C44.2538 36.405 44.2508 36.5392 44.2447 36.6887C44.2203 37.2775 44.144 37.8662 44.0159 38.4397Z" fill="url(#paint8_radial_18:195)"/>
        <path d="M33.42 39.2969C31.3453 41.1578 30.0395 43.711 29.7405 46.4809L29.7314 46.5572L29.8107 46.5968C31.2569 47.2344 32.7884 47.5578 34.3688 47.5578C36.6418 47.5578 38.814 46.8928 40.6751 45.6359C40.2846 45.3492 39.9093 45.0319 39.5523 44.6933C37.9964 45.6542 36.2055 46.1637 34.3688 46.1637C33.3986 46.1637 32.4406 46.0233 31.5162 45.7427L31.3728 45.7L31.2782 45.6725L31.2965 45.5902L31.3301 45.4437C31.9799 42.6373 33.8166 40.2609 36.3672 38.9278C36.8919 38.6533 37.4442 38.4245 38.0086 38.2506C38.9605 37.9547 39.952 37.8052 40.9558 37.8052C41.9016 37.8052 42.8352 37.9364 43.7321 38.1987C43.8267 37.7412 43.8847 37.2714 43.9121 36.8016C42.948 36.5393 41.9565 36.4081 40.9558 36.4081C39.9124 36.4081 38.875 36.5515 37.8743 36.8352C37.3069 36.9968 36.7485 37.2043 36.2146 37.4514C35.1956 37.9242 34.2559 38.5435 33.42 39.2969Z" fill="url(#paint9_radial_18:195)"/>
        <path d="M47.5427 47.5578C49.1231 47.5578 50.6577 47.2344 52.1039 46.5938L52.11 46.5908L52.1801 46.5633L52.171 46.4809C51.872 43.708 50.5662 41.1578 48.4915 39.2969C47.7105 38.5953 46.841 38.0096 45.9013 37.552C45.8494 38.0401 45.7671 38.5221 45.6542 38.9888C48.1743 40.3494 49.9743 42.7227 50.5997 45.5231L50.6333 45.6695L50.4899 45.7153C49.538 46.0142 48.5465 46.1637 47.5427 46.1637C45.6633 46.1637 43.8328 45.6298 42.2524 44.6232C41.752 44.3059 41.2791 43.9398 40.8459 43.5402C39.3998 42.2071 38.3991 40.5049 37.9384 38.6136C37.4899 38.7631 37.0536 38.9431 36.6326 39.1566C37.136 41.0754 38.1489 42.8356 39.5676 44.254C39.595 44.2815 39.6255 44.309 39.653 44.3395L39.6835 44.37C40.1106 44.7848 40.5713 45.1662 41.0473 45.5048C42.9511 46.847 45.1965 47.5578 47.5427 47.5578Z" fill="url(#paint10_radial_18:195)"/>
    </g>
    <defs>
        <radialGradient id="paint0_radial_18:195" cx="0" cy="0" r="1" gradientUnits="userSpaceOnUse" gradientTransform="translate(12.3565 104.242) scale(12.0406 12.039)">
            <stop stop-color="#FCD295"/>
            <stop offset="0.1833" stop-color="#FDD192"/>
            <stop offset="0.3319" stop-color="#FDCE88"/>
            <stop offset="0.4678" stop-color="#FEC877"/>
            <stop offset="0.5524" stop-color="#FFC368"/>
            <stop offset="0.7171" stop-color="#FFC265"/>
            <stop offset="0.8505" stop-color="#FFC05B"/>
            <stop offset="0.9725" stop-color="#FFBD4A"/>
            <stop offset="1" stop-color="#FFBC45"/>
        </radialGradient>
        <radialGradient id="paint1_radial_18:195" cx="0" cy="0" r="1" gradientUnits="userSpaceOnUse" gradientTransform="translate(29.6255 93.1937) scale(1.07524 1.0751)">
            <stop stop-color="#FCD295"/>
            <stop offset="0.1833" stop-color="#FDD192"/>
            <stop offset="0.3319" stop-color="#FDCE88"/>
            <stop offset="0.4678" stop-color="#FEC877"/>
            <stop offset="0.5524" stop-color="#FFC368"/>
            <stop offset="0.7171" stop-color="#FFC265"/>
            <stop offset="0.8505" stop-color="#FFC05B"/>
            <stop offset="0.9725" stop-color="#FFBD4A"/>
            <stop offset="1" stop-color="#FFBC45"/>
        </radialGradient>
        <radialGradient id="paint2_radial_18:195" cx="0" cy="0" r="1" gradientUnits="userSpaceOnUse" gradientTransform="translate(29.7665 107.766) scale(6.58929 6.58842)">
            <stop stop-color="#FCD295"/>
            <stop offset="0.1833" stop-color="#FDD192"/>
            <stop offset="0.3319" stop-color="#FDCE88"/>
            <stop offset="0.4678" stop-color="#FEC877"/>
            <stop offset="0.5524" stop-color="#FFC368"/>
            <stop offset="0.7171" stop-color="#FFC265"/>
            <stop offset="0.8505" stop-color="#FFC05B"/>
            <stop offset="0.9725" stop-color="#FFBD4A"/>
            <stop offset="1" stop-color="#FFBC45"/>
        </radialGradient>
        <radialGradient id="paint3_radial_18:195" cx="0" cy="0" r="1" gradientUnits="userSpaceOnUse" gradientTransform="translate(44.2523 104.454) scale(10.8564 10.8549)">
            <stop stop-color="#FCD295"/>
            <stop offset="0.1833" stop-color="#FDD192"/>
            <stop offset="0.3319" stop-color="#FDCE88"/>
            <stop offset="0.4678" stop-color="#FEC877"/>
            <stop offset="0.5524" stop-color="#FFC368"/>
            <stop offset="0.7171" stop-color="#FFC265"/>
            <stop offset="0.8505" stop-color="#FFC05B"/>
            <stop offset="0.9725" stop-color="#FFBD4A"/>
            <stop offset="1" stop-color="#FFBC45"/>
        </radialGradient>
        <radialGradient id="paint4_radial_18:195" cx="0" cy="0" r="1" gradientUnits="userSpaceOnUse" gradientTransform="translate(64.3593 104.242) scale(11.0707 11.0693)">
            <stop stop-color="#FCD295"/>
            <stop offset="0.1833" stop-color="#FDD192"/>
            <stop offset="0.3319" stop-color="#FDCE88"/>
            <stop offset="0.4678" stop-color="#FEC877"/>
            <stop offset="0.5524" stop-color="#FFC368"/>
            <stop offset="0.7171" stop-color="#FFC265"/>
            <stop offset="0.8505" stop-color="#FFC05B"/>
            <stop offset="0.9725" stop-color="#FFBD4A"/>
            <stop offset="1" stop-color="#FFBC45"/>
        </radialGradient>
        <radialGradient id="paint5_radial_18:195" cx="0" cy="0" r="1" gradientUnits="userSpaceOnUse" gradientTransform="translate(78.8621 107.766) scale(6.58925 6.58839)">
            <stop stop-color="#FCD295"/>
            <stop offset="0.1833" stop-color="#FDD192"/>
            <stop offset="0.3319" stop-color="#FDCE88"/>
            <stop offset="0.4678" stop-color="#FEC877"/>
            <stop offset="0.5524" stop-color="#FFC368"/>
            <stop offset="0.7171" stop-color="#FFC265"/>
            <stop offset="0.8505" stop-color="#FFC05B"/>
            <stop offset="0.9725" stop-color="#FFBD4A"/>
            <stop offset="1" stop-color="#FFBC45"/>
        </radialGradient>
        <radialGradient id="paint6_radial_18:195" cx="0" cy="0" r="1" gradientUnits="userSpaceOnUse" gradientTransform="translate(78.7211 93.1937) scale(1.07526 1.07513)">
            <stop stop-color="#FCD295"/>
            <stop offset="0.1833" stop-color="#FDD192"/>
            <stop offset="0.3319" stop-color="#FDCE88"/>
            <stop offset="0.4678" stop-color="#FEC877"/>
            <stop offset="0.5524" stop-color="#FFC368"/>
            <stop offset="0.7171" stop-color="#FFC265"/>
            <stop offset="0.8505" stop-color="#FFC05B"/>
            <stop offset="0.9725" stop-color="#FFBD4A"/>
            <stop offset="1" stop-color="#FFBC45"/>
        </radialGradient>
        <radialGradient id="paint7_radial_18:195" cx="0" cy="0" r="1" gradientUnits="userSpaceOnUse" gradientTransform="translate(40.9562 40.844) scale(40.8494 40.844)">
            <stop stop-color="#FCD295"/>
            <stop offset="0.1833" stop-color="#FDD192"/>
            <stop offset="0.3319" stop-color="#FDCE88"/>
            <stop offset="0.4678" stop-color="#FEC877"/>
            <stop offset="0.5524" stop-color="#FFC368"/>
            <stop offset="0.7171" stop-color="#FFC265"/>
            <stop offset="0.8505" stop-color="#FFC05B"/>
            <stop offset="0.9725" stop-color="#FFBD4A"/>
            <stop offset="1" stop-color="#FFBC45"/>
        </radialGradient>
        <radialGradient id="paint8_radial_18:195" cx="0" cy="0" r="1" gradientUnits="userSpaceOnUse" gradientTransform="translate(40.9559 35.6942) scale(6.91866 6.91774)">
            <stop stop-color="#FCD295"/>
            <stop offset="0.1833" stop-color="#FDD192"/>
            <stop offset="0.3319" stop-color="#FDCE88"/>
            <stop offset="0.4678" stop-color="#FEC877"/>
            <stop offset="0.5524" stop-color="#FFC368"/>
            <stop offset="0.7171" stop-color="#FFC265"/>
            <stop offset="0.8505" stop-color="#FFC05B"/>
            <stop offset="0.9725" stop-color="#FFBD4A"/>
            <stop offset="1" stop-color="#FFBC45"/>
        </radialGradient>
        <radialGradient id="paint9_radial_18:195" cx="0" cy="0" r="1" gradientUnits="userSpaceOnUse" gradientTransform="translate(36.8219 41.9831) scale(6.37859 6.37774)">
            <stop stop-color="#FCD295"/>
            <stop offset="0.1833" stop-color="#FDD192"/>
            <stop offset="0.3319" stop-color="#FDCE88"/>
            <stop offset="0.4678" stop-color="#FEC877"/>
            <stop offset="0.5524" stop-color="#FFC368"/>
            <stop offset="0.7171" stop-color="#FFC265"/>
            <stop offset="0.8505" stop-color="#FFC05B"/>
            <stop offset="0.9725" stop-color="#FFBD4A"/>
            <stop offset="1" stop-color="#FFBC45"/>
        </radialGradient>
        <radialGradient id="paint10_radial_18:195" cx="0" cy="0" r="1" gradientUnits="userSpaceOnUse" gradientTransform="translate(44.4067 42.5533) scale(6.53818 6.53731)">
            <stop stop-color="#FCD295"/>
            <stop offset="0.1833" stop-color="#FDD192"/>
            <stop offset="0.3319" stop-color="#FDCE88"/>
            <stop offset="0.4678" stop-color="#FEC877"/>
            <stop offset="0.5524" stop-color="#FFC368"/>
            <stop offset="0.7171" stop-color="#FFC265"/>
            <stop offset="0.8505" stop-color="#FFC05B"/>
            <stop offset="0.9725" stop-color="#FFBD4A"/>
            <stop offset="1" stop-color="#FFBC45"/>
        </radialGradient>
        <clipPath id="clip0_18:195">
            <rect width="81.7864" height="117" fill="white" transform="translate(0.106812)"/>
        </clipPath>
    </defs>
</svg>
