<svg id="settings-icon" width="20" height="20" viewBox="0 0 20 20" fill="none" xmlns="http://www.w3.org/2000/svg">
    <path d="M9.99967 4.99998V3.33331M9.99967 4.99998C9.55765 4.99998 9.13372 5.17557 8.82116 5.48813C8.5086 5.8007 8.33301 6.22462 8.33301 6.66665C8.33301 7.10867 8.5086 7.5326 8.82116 7.84516C9.13372 8.15772 9.55765 8.33331 9.99967 8.33331M9.99967 4.99998C10.4417 4.99998 10.8656 5.17557 11.1782 5.48813C11.4907 5.8007 11.6663 6.22462 11.6663 6.66665C11.6663 7.10867 11.4907 7.5326 11.1782 7.84516C10.8656 8.15772 10.4417 8.33331 9.99967 8.33331M9.99967 8.33331V16.6666M4.99967 15C5.4417 15 5.86563 14.8244 6.17819 14.5118C6.49075 14.1993 6.66634 13.7753 6.66634 13.3333C6.66634 12.8913 6.49075 12.4674 6.17819 12.1548C5.86563 11.8422 5.4417 11.6666 4.99967 11.6666M4.99967 15C4.55765 15 4.13372 14.8244 3.82116 14.5118C3.5086 14.1993 3.33301 13.7753 3.33301 13.3333C3.33301 12.8913 3.5086 12.4674 3.82116 12.1548C4.13372 11.8422 4.55765 11.6666 4.99967 11.6666M4.99967 15V16.6666M4.99967 11.6666V3.33331M14.9997 15C15.4417 15 15.8656 14.8244 16.1782 14.5118C16.4907 14.1993 16.6663 13.7753 16.6663 13.3333C16.6663 12.8913 16.4907 12.4674 16.1782 12.1548C15.8656 11.8422 15.4417 11.6666 14.9997 11.6666M14.9997 15C14.5576 15 14.1337 14.8244 13.8212 14.5118C13.5086 14.1993 13.333 13.7753 13.333 13.3333C13.333 12.8913 13.5086 12.4674 13.8212 12.1548C14.1337 11.8422 14.5576 11.6666 14.9997 11.6666M14.9997 15V16.6666M14.9997 11.6666V3.33331" stroke-width="1.5" stroke-linecap="round" stroke-linejoin="round"/>
</svg>
