<svg width="28" height="31" viewBox="0 0 28 31" fill="none" xmlns="http://www.w3.org/2000/svg">
    <path d="M7.96341 17.8986C8.32203 17.6378 8.74586 17.4422 9.16969 17.2791C7.76779 15.6164 6.92014 13.4647 6.92014 11.1173C6.92014 8.60697 7.8982 6.32482 9.49571 4.62951C9.56091 4.66211 9.62612 4.72731 9.72392 4.79252C9.78913 4.85772 9.82173 5.31415 9.78913 5.80319V5.83579V5.86839C9.78913 5.86839 10.1804 6.84645 9.82173 7.62891C9.3979 8.47656 9.49571 9.81325 9.69132 10.1067C9.88693 10.3675 10.7998 11.5412 10.9302 11.6716C11.028 11.7694 11.354 12.617 11.354 12.7474C11.3866 12.8453 11.9735 13.5951 12.5929 13.5625C12.9515 13.5299 13.3754 13.7581 13.6688 13.8885C13.7992 13.9537 13.897 14.0189 13.9948 14.0189C14.0274 14.0189 14.06 14.0841 14.0926 14.1493C14.1904 14.3123 14.3208 14.5406 14.6468 14.7362C14.7447 14.7688 14.8425 14.834 14.9403 14.8992C15.2663 15.0948 15.7227 15.323 15.7553 15.4208C15.7553 15.4534 15.6901 15.5186 15.6249 15.5838C15.4293 15.7794 15.1033 16.1707 15.2011 16.6923C15.2337 16.8879 15.3315 17.0835 15.4619 17.2791L17.7441 17.377C18.4287 17.4096 19.0807 17.703 19.5372 18.2572C19.6024 18.355 19.6676 18.4202 19.7328 18.518L19.8306 18.4854L21.1347 18.0942C21.1673 18.0616 21.1999 18.029 21.1999 17.9964C21.3955 17.5726 21.6237 17.1161 21.7541 16.9857C22.0149 16.7901 21.7867 16.3989 21.6889 16.2685L21.6563 16.2359C21.5585 16.0729 20.9065 16.0077 20.8087 16.0403C20.6782 16.0403 20.124 15.7468 20.0914 15.649C20.0914 15.4534 19.5698 14.9644 19.4068 14.9644C19.3416 14.9644 19.0155 14.8992 18.8525 14.671C18.6895 14.3776 17.9397 14.2145 17.7115 14.2145C17.4832 14.2145 17.1898 14.1819 16.9942 14.0841C16.7986 13.9863 16.4726 14.1167 16.1465 14.2797C16.0813 14.3124 16.0161 14.345 15.9835 14.345C15.8857 14.3776 15.2663 14.2471 15.1033 14.1819C15.0707 14.1493 15.0381 13.8885 15.0381 13.7581C15.0381 13.5951 15.0055 13.4973 14.9729 13.4321C14.9403 13.3343 14.7773 13.3017 14.4838 13.2365C14.4186 13.2039 14.3208 13.2039 14.2556 13.1713C14.2556 13.1387 14.2882 13.0409 14.3208 12.9757C14.4186 12.7474 14.4838 12.5844 14.4186 12.4866C14.386 12.454 14.3534 12.4214 14.3208 12.4214C14.1904 12.3888 13.9948 12.5192 13.7666 12.6822C13.6688 12.7474 13.5384 12.8453 13.5058 12.8453C13.3754 12.8453 13.1145 12.7474 12.8211 12.5518C12.6581 12.454 12.8537 11.8672 12.9515 11.6064C12.9841 11.476 13.0167 11.3782 13.0493 11.313C13.0493 11.2477 13.3754 11.1499 13.8318 11.1499C13.9622 11.1499 14.1252 11.1173 14.2882 11.0847C14.4186 11.0521 14.5816 11.0521 14.6795 11.0521C14.7447 11.0521 14.8751 11.2151 14.9403 11.3456C15.0707 11.5086 15.1685 11.6716 15.2663 11.639C15.4619 11.6064 15.4293 11.3782 15.4293 11.2151C15.4293 11.1499 15.4293 11.1173 15.4293 11.0847C15.4619 10.9869 15.6901 10.5957 15.8857 10.4653C16.1139 10.3349 16.44 9.87846 16.3422 9.68284C16.3422 9.58504 16.7334 9.32422 16.8638 9.22641C16.929 9.19381 16.9616 9.16121 16.9942 9.12861C17.0268 9.096 17.092 9.0634 17.1246 9.0308C17.255 8.9656 17.4506 8.86779 17.4506 8.63957C17.4506 8.50916 17.8745 8.44396 18.1679 8.37876C18.2331 8.37876 18.2983 8.37876 18.3309 8.34615C18.4939 8.31355 18.5917 8.28095 18.6243 8.21575C18.6569 8.11794 18.6243 8.02013 18.5917 7.88972C18.5917 7.85712 18.5591 7.82452 18.5591 7.79192C18.4613 7.5637 18.5265 7.43329 18.7221 7.27028C18.8199 7.20508 18.9829 7.17248 19.1459 7.17248C19.3416 7.13987 19.5372 7.13987 19.7002 7.04207C19.8306 6.97686 19.8958 6.91166 19.9284 6.84645C19.961 6.74865 19.8958 6.65084 19.8306 6.55304C19.798 6.52043 19.7654 6.48783 19.7654 6.45523C19.6676 6.25962 19.5046 6.12921 19.3742 6.0314C19.309 5.9662 19.2438 5.70538 19.2112 5.54237C19.1785 5.44456 19.1786 5.34676 19.1459 5.28155C19.1133 5.21635 19.0807 5.18374 19.0155 5.15114C18.8851 5.08594 18.6243 5.18374 18.4939 5.24895C18.4939 5.21635 18.4613 5.15114 18.4613 5.11854C18.4287 5.02073 18.4287 4.92293 18.3635 4.85772C18.3309 4.82512 18.2657 4.75992 18.1679 4.66211C18.0375 4.5317 17.8419 4.36869 17.7441 4.27088C17.6789 4.20568 17.6136 4.20568 17.5484 4.20568C17.3854 4.20568 17.255 4.43389 17.1246 4.62951C17.092 4.66211 17.092 4.66211 17.092 4.69471C16.8964 4.98813 16.8638 5.21635 16.9942 5.34676C16.9942 5.34676 17.0268 5.41196 16.9616 5.50977C16.8964 5.67278 16.7986 5.77058 16.7334 5.77058C16.5378 5.73798 16.5052 5.9988 16.44 6.25962C16.44 6.35742 16.4074 6.48783 16.3748 6.55304C16.3422 6.52043 16.277 6.35742 16.277 5.93359V5.86839C16.277 5.80318 16.2444 5.77058 16.2118 5.73798C16.1466 5.67278 16.0813 5.70538 16.0161 5.70538C15.9183 5.70538 15.8857 5.70538 15.8531 5.67278C15.7553 5.50977 15.2337 5.31415 15.0381 5.24895C15.0381 4.95553 15.0381 4.66211 15.0381 4.66211C15.1033 4.5643 15.9183 4.04267 16.0813 3.97746C16.3422 3.87966 16.9616 3.45583 17.092 3.35802C17.2224 3.29282 17.2224 3.19501 17.2224 3.12981C17.1898 2.93419 16.8312 2.77118 16.6682 2.73858C16.5378 2.47776 16.3748 2.47776 16.1465 2.47776C16.0487 2.47776 15.9183 2.47776 15.7553 2.44516C15.1685 2.34736 14.6469 2.31475 14.2556 2.37996C13.9622 2.41256 13.6362 2.34736 13.3428 2.28215C13.2124 2.24955 13.0819 2.21695 12.9841 2.21695C14.06 1.82572 15.2011 1.5649 16.4074 1.5649C17.7115 1.5649 18.9503 1.82572 20.0914 2.31475C20.124 2.41256 20.1566 2.51037 20.1892 2.60817C20.3196 2.90159 20.5152 3.35802 20.5152 3.71665C20.5152 4.07527 20.5478 4.4665 20.5152 4.5643C20.4826 4.66211 21.2325 5.54237 21.3955 5.54237C21.5585 5.57497 21.6563 5.44456 21.7867 5.28155C21.8845 5.11854 22.0475 4.92293 22.341 4.69471C22.6018 4.4991 23.1886 4.5643 23.3842 4.59691C23.6776 4.92293 23.9711 5.28155 24.2319 5.64017C24.1667 5.67278 24.1341 5.73798 24.1015 5.77058C23.9711 5.90099 23.5798 6.29222 23.6124 6.58564C23.645 6.87906 23.9711 7.23768 24.3623 7.4659C24.7535 7.66151 24.7861 8.05273 24.7861 8.11794C24.7861 8.18314 25.3404 8.54177 25.3404 8.54177C25.3404 8.54177 25.1121 8.9982 25.0143 8.9982C24.9165 8.9982 24.8187 9.45463 24.8187 9.65024C24.8187 9.84585 25.0469 10.1393 25.2752 10.3349C25.5034 10.5305 25.8946 10.0089 25.8946 10.0089C25.9272 10.3023 25.9272 10.5957 25.9598 10.8891C25.7316 10.8891 25.3078 11.0521 25.1773 11.1825C25.0143 11.313 24.6883 12.4214 24.5253 12.5518C24.3623 12.6496 24.0363 14.1819 24.0363 14.345C24.0037 14.508 24.4927 15.7794 24.7535 15.7794C24.4601 16.3011 24.1015 16.8227 23.7103 17.2791L24.0363 17.1813C24.2971 17.1161 24.5579 17.0835 24.8187 17.0835C25.1121 17.0835 25.4056 17.1161 25.699 17.2139C26.8727 15.4534 27.5247 13.3669 27.5247 11.0847C27.5247 4.95553 22.5366 0 16.4074 0C10.2782 0 5.32263 4.98813 5.32263 11.0847C5.32263 13.6929 6.23549 16.0729 7.73519 17.9638L7.96341 17.8986Z" fill="white"/>
    <path d="M24.4927 18.5506L20.2218 19.8221C20.2218 19.9199 20.2218 20.0177 20.2218 20.1155C20.1566 21.3218 19.2763 22.2998 18.1027 22.528L17.8418 22.5933C16.3095 22.8867 14.712 23.0823 13.1471 23.1149L11.8431 23.1475C11.4518 23.1475 11.1258 22.8541 11.1258 22.4628C11.1258 22.0716 11.4192 21.7456 11.8104 21.7456L13.1145 21.713C14.6142 21.6804 16.1139 21.5174 17.581 21.224L17.8418 21.1588C18.3635 21.061 18.7873 20.6045 18.8199 20.0503C18.8525 19.7243 18.7221 19.4308 18.5265 19.17C18.2983 18.9418 18.0049 18.7788 17.6788 18.7788L10.8976 18.4528C10.1477 18.4202 9.39789 18.6484 8.77845 19.0722L3.04047 23.0171L8.81105 27.5162L14.4838 28.1682C15.4945 28.266 16.4726 28.0052 17.2876 27.3858L25.7316 20.9957C26.0576 20.7675 26.2532 20.4089 26.2858 20.0177C26.3184 19.6265 26.188 19.2352 25.9272 18.9418C25.5686 18.5506 24.9817 18.4202 24.4927 18.5506Z" fill="white"/>
    <path d="M0.13889 26.473C0.0410831 26.6034 -0.0241214 26.7664 0.00848077 26.9294C0.0410829 27.0924 0.106287 27.2228 0.236696 27.3206L4.801 30.8743C5.06182 31.0699 5.45304 31.0373 5.64866 30.7765L7.53958 28.3313L2.02981 24.0604L0.13889 26.473Z" fill="white"/>
</svg>
