<svg width="20" height="20" viewBox="0 0 20 20" fill="none" xmlns="http://www.w3.org/2000/svg">
<circle cx="10" cy="10" r="10" fill="url(#paint0_linear_1336_256)"/>
<path fill-rule="evenodd" clip-rule="evenodd" d="M11.7058 10.1765C11.5005 11.0945 11.0688 11.9362 10.4466 12.6362C10.2856 12.8174 10.2883 13.0987 10.4821 13.2442C10.5684 13.309 10.6566 13.3712 10.7463 13.4309C10.7546 13.4364 10.7669 13.4362 10.7731 13.4283C10.7736 13.4276 10.7742 13.4269 10.7748 13.4263C10.7751 13.4259 10.7754 13.4256 10.7757 13.4253C11.5824 12.6155 12.1548 11.6066 12.4283 10.5074C12.5065 10.1919 12.5626 9.86278 12.5915 9.53367C12.6085 9.34439 12.617 9.1534 12.617 8.96924C12.617 6.96388 11.6531 5.06083 10.0399 3.87739L10.0314 3.87057C10.0151 3.85519 9.98966 3.85497 9.9731 3.87007L9.96506 3.87739C8.3501 5.06083 7.38792 6.96388 7.38792 8.96924C7.38792 9.18273 7.60965 9.31734 7.81039 9.24467C7.87937 9.2197 7.94877 9.19584 8.01848 9.1731C8.1065 9.1444 8.1648 9.06182 8.1648 8.96924C8.1648 7.43282 8.81249 5.95267 9.94126 4.90736C9.97586 4.87555 10.0291 4.87555 10.0637 4.90736C11.1924 5.95267 11.8384 7.43282 11.8384 8.96924C11.8384 9.03915 11.8367 9.11418 11.8333 9.19774C11.8197 9.52685 11.7772 9.85596 11.7058 10.1765ZM5.80157 10.6556C4.64559 11.6958 3.91801 13.1231 3.75141 14.6714C3.74835 14.697 3.76166 14.7218 3.78469 14.7333L3.79051 14.7362C4.59629 15.0926 5.44968 15.2734 6.33026 15.2734C7.41751 15.2734 8.46342 14.9994 9.39377 14.4773C9.61906 14.3509 9.6273 14.0381 9.43292 13.868C9.30483 13.7558 9.11816 13.7359 8.96894 13.8178C8.16243 14.2607 7.2568 14.4941 6.33026 14.4941C5.78967 14.4941 5.25588 14.4156 4.74079 14.2588L4.66089 14.2349L4.65347 14.2327C4.628 14.2253 4.61266 14.1994 4.61839 14.1735L4.63709 14.0916C4.99918 12.5228 6.02256 11.1944 7.44373 10.4493C7.73613 10.2958 8.04382 10.1679 8.35831 10.0707C8.8887 9.90528 9.44119 9.82173 10.0005 9.82173C10.3753 9.82173 10.7466 9.85882 11.1097 9.933C11.3477 9.98164 11.5904 9.83828 11.6185 9.59695C11.6413 9.40188 11.5125 9.22221 11.3205 9.18083C10.8872 9.08743 10.4455 9.04073 10.0005 9.04073C9.41909 9.04073 8.8411 9.12087 8.28351 9.27946C7.96732 9.36984 7.65623 9.4858 7.35873 9.62392C6.79095 9.88823 6.26736 10.2344 5.80157 10.6556ZM16.2123 14.7346C15.4065 15.0927 14.5514 15.2735 13.6708 15.2735C12.3636 15.2735 11.1124 14.8762 10.0516 14.1259C9.78642 13.9366 9.52972 13.7234 9.29173 13.4915L9.27472 13.4745C9.26446 13.463 9.25344 13.4524 9.24267 13.4419C9.23739 13.4368 9.23216 13.4318 9.22713 13.4267C8.51649 12.7139 7.98858 11.8467 7.68539 10.8995C7.62567 10.7129 7.71554 10.5123 7.89554 10.435C8.11976 10.3387 8.36746 10.478 8.44415 10.7096C8.73639 11.5924 9.246 12.3864 9.93941 13.0277C10.1808 13.2511 10.4443 13.4557 10.7231 13.633C11.6037 14.1958 12.6237 14.4942 13.6708 14.4942C14.2301 14.4942 14.7826 14.4106 15.313 14.2435C15.3582 14.2291 15.3848 14.1823 15.3742 14.1361C15.0465 12.6642 14.1403 11.4034 12.8659 10.6258C12.7223 10.5382 12.6467 10.3719 12.6784 10.2066C12.7268 9.95357 13.001 9.80057 13.2221 9.93289C13.5695 10.1409 13.8965 10.3826 14.1995 10.6557C15.3555 11.6959 16.0831 13.1215 16.2497 14.6715L16.2502 14.6758C16.2529 14.7005 16.2387 14.7239 16.2157 14.7329L16.2123 14.7346Z" fill="white"/>
<defs>
<linearGradient id="paint0_linear_1336_256" x1="19.025" y1="2.08316" x2="-2.06629" y2="4.68904" gradientUnits="userSpaceOnUse">
<stop offset="1" stop-color="#2E5CFF"/>
</linearGradient>
</defs>
</svg>
