<svg id="wallet-icon" width="24" height="19" viewBox="0 0 24 19" fill="none" xmlns="http://www.w3.org/2000/svg">
    <path d="M13 8V11C13 11.7956 13.3161 12.5587 13.8787 13.1213C14.4413 13.6839 15.2044 14 16 14H23C23.3416 14.0022 23.6806 13.9411 24 13.82V16C24 16.7956 23.6839 17.5587 23.1213 18.1213C22.5587 18.6839 21.7956 19 21 19H3C2.20435 19 1.44129 18.6839 0.87868 18.1213C0.316071 17.5587 0 16.7956 0 16V3C0 2.20435 0.316071 1.44129 0.87868 0.87868C1.44129 0.316071 2.20435 0 3 0H21C21.7956 0 22.5587 0.316071 23.1213 0.87868C23.6839 1.44129 24 2.20435 24 3V5.18C23.6806 5.05886 23.3416 4.99783 23 5H16C15.2044 5 14.4413 5.31607 13.8787 5.87868C13.3161 6.44129 13 7.20435 13 8Z" />
    <path d="M23 7H16C15.7348 7 15.4804 7.10536 15.2929 7.29289C15.1054 7.48043 15 7.73478 15 8V11C15 11.2652 15.1054 11.5196 15.2929 11.7071C15.4804 11.8946 15.7348 12 16 12H23C23.2652 12 23.5196 11.8946 23.7071 11.7071C23.8946 11.5196 24 11.2652 24 11V8C24 7.73478 23.8946 7.48043 23.7071 7.29289C23.5196 7.10536 23.2652 7 23 7ZM18.5 11C18.2033 11 17.9133 10.912 17.6666 10.7472C17.42 10.5824 17.2277 10.3481 17.1142 10.074C17.0007 9.79994 16.9709 9.49834 17.0288 9.20736C17.0867 8.91639 17.2296 8.64912 17.4393 8.43934C17.6491 8.22956 17.9164 8.0867 18.2074 8.02882C18.4983 7.97094 18.7999 8.00065 19.074 8.11418C19.3481 8.22771 19.5824 8.41997 19.7472 8.66665C19.912 8.91332 20 9.20333 20 9.5C20 9.89782 19.842 10.2794 19.5607 10.5607C19.2794 10.842 18.8978 11 18.5 11Z" />
</svg>
