<svg width="32" height="32" viewBox="0 0 32 32" fill="none" xmlns="http://www.w3.org/2000/svg">
    <circle cx="16" cy="16" r="16" fill="#1A9F97"/>
    <path d="M9.194 8.64527C9.97918 8.64527 10.7644 8.64527 11.5786 8.64527C11.5786 9.02743 11.5786 9.40959 11.5786 9.87994C11.7531 9.76235 11.8694 9.67416 11.9567 9.61537C12.9745 8.82165 13.9923 8.02793 15.0102 7.23421C15.4755 6.88145 15.9989 6.88145 16.5224 7.293C17.9764 8.41009 19.4305 9.55657 20.8845 10.6737C22.0768 11.585 23.2401 12.5257 24.4324 13.437C24.7523 13.6722 24.9558 13.9661 24.8686 14.3483C24.7232 15.0832 23.7635 15.3772 23.0947 14.848C22.0768 14.0837 21.0881 13.29 20.0702 12.4963C18.7325 11.4674 17.4239 10.4385 16.1152 9.40959C15.8244 9.17441 15.65 9.17441 15.3591 9.40959C13.0618 11.2322 10.7353 13.0254 8.37973 14.8186C8.20524 14.9362 8.03076 15.0538 7.82719 15.1126C7.3619 15.2596 6.86752 15.0538 6.63488 14.701C6.37315 14.3483 6.46039 13.8485 6.86752 13.5252C7.53638 12.996 8.23433 12.4669 8.90319 11.9083C9.04859 11.7907 9.16491 11.5556 9.16491 11.3792C9.22308 10.4973 9.194 9.58597 9.194 8.64527Z" fill="white"/>
    <path d="M13.2073 14.1425H14.8939V16.4648H12.5966V14.7598C12.5966 14.4364 12.8874 14.1425 13.2073 14.1425Z" fill="white"/>
    <path d="M12.5966 17.8465H14.8939V20.1689H13.2073C12.8583 20.1689 12.5966 19.9043 12.5966 19.5516V17.8465Z" fill="white"/>
    <path d="M18.8198 14.7598V16.4648H16.5224V14.1425H18.2091C18.529 14.1425 18.8198 14.4364 18.8198 14.7598Z" fill="white"/>
    <path d="M18.8197 17.8465V18.4051C18.1799 18.9048 17.7146 19.6397 17.4819 20.0513C17.4529 20.0807 17.4529 20.1101 17.4238 20.1689H16.5514V17.8465C16.5223 17.8465 18.8197 17.8465 18.8197 17.8465Z" fill="white"/>
    <path d="M24.665 17.4351C24.665 17.4645 23.7925 17.582 23.7344 17.6114C23.2691 17.6996 22.8038 17.7584 22.3385 17.8466C21.3788 18.023 20.4482 18.2582 19.634 18.7579C19.5467 18.8167 19.4595 18.8755 19.3722 18.9343C18.8779 19.2871 18.4126 19.9044 18.0927 20.4336C18.0636 20.4629 18.0636 20.4923 18.0345 20.5511C17.5983 21.3155 17.3075 22.1386 17.133 22.9911C17.0748 23.2263 17.0458 23.4614 17.0167 23.6966C17.0167 23.7848 16.9585 24.3727 16.9294 24.7255C16.9585 24.6961 17.0458 24.6373 17.1912 24.5197C17.3657 24.3727 17.5983 24.1964 17.8891 23.9612C18.1799 23.726 18.4998 23.432 18.8779 23.1381C19.0523 22.9911 19.2268 22.8147 19.4304 22.6383C19.5176 22.5795 19.5758 22.4913 19.663 22.4325C19.7794 22.3444 19.8666 22.2562 19.9829 22.1386C20.1574 21.9622 20.3319 21.7858 20.5064 21.6094C20.6809 21.433 20.8554 21.2567 21.0298 21.0803C21.2043 20.9039 21.3497 20.7275 21.4951 20.5805C21.5242 20.5511 21.5242 20.5511 21.5533 20.5217H21.6405C21.6115 20.5511 21.5824 20.5805 21.5533 20.6393C21.4079 20.8157 21.2625 20.9627 21.1171 21.1685C20.9717 21.3449 20.7972 21.5212 20.6227 21.6976C20.4482 21.874 20.2737 22.0504 20.0993 22.2562C19.9539 22.4032 19.8085 22.5501 19.663 22.6677C19.634 22.6971 19.5758 22.7265 19.5467 22.7853C19.3722 22.9617 19.1978 23.1381 19.0233 23.2851C18.6743 23.6084 18.3544 23.9024 18.0636 24.167C17.7728 24.4315 17.5401 24.6373 17.3657 24.7843C17.2203 24.9019 17.133 24.9607 17.1039 24.9901C25.1012 24.5785 24.665 17.4351 24.665 17.4351Z" fill="white"/>
    <path d="M15.3884 23.1968C15.1848 22.9322 14.9522 22.7264 14.7195 22.5207C12.2186 20.4041 9.31049 22.0209 9.31049 22.0209C9.31049 22.0209 9.65946 22.5207 9.68854 22.5795C10.2992 23.4614 10.8809 24.4315 11.8405 24.9606C12.2186 25.1664 12.742 25.284 13.1782 25.3134C13.9634 25.4016 14.8068 25.284 15.5629 25.0194C15.6501 24.99 16.4062 24.7254 16.4062 24.696C16.0863 24.1081 15.7374 23.6084 15.3884 23.1968Z" fill="white"/>
</svg>
