<svg width="32" height="32" viewBox="0 0 32 32" fill="none" xmlns="http://www.w3.org/2000/svg">
    <circle cx="16" cy="16" r="16" fill="#F0A72C"/>
    <path d="M19.9627 15.1843H12.0373C11.5851 15.1843 11.2866 14.7089 11.479 14.2951L13.366 10.242C13.4678 10.0234 13.6852 9.88403 13.9243 9.88403H18.0763C18.3154 9.88403 18.5328 10.0234 18.6346 10.242L20.5216 14.2951C20.7134 14.7089 20.4148 15.1843 19.9627 15.1843Z" fill="white"/>
    <path d="M14.7656 21.7317H6.8399C6.38774 21.7317 6.08918 21.2563 6.28164 20.8425L8.16861 16.7894C8.2704 16.5708 8.48784 16.4315 8.72687 16.4315H12.8786C13.1177 16.4315 13.3351 16.5708 13.4369 16.7894L15.3239 20.8425C15.516 21.2563 15.2178 21.7317 14.7656 21.7317Z" fill="white"/>
    <path d="M25.16 21.7317H17.2342C16.7821 21.7317 16.4835 21.2563 16.676 20.8425L18.563 16.7894C18.6647 16.5708 18.8822 16.4315 19.1212 16.4315H23.2733C23.5123 16.4315 23.7298 16.5708 23.8316 16.7894L25.7185 20.8425C25.9107 21.2563 25.6121 21.7317 25.16 21.7317Z" fill="white"/>
</svg>
