<svg width="62" height="32" viewBox="0 0 62 32" fill="none" xmlns="http://www.w3.org/2000/svg">
    <path d="M18.5 32C27.3366 32 34.5 24.8366 34.5 16C34.5 7.16344 27.3366 0 18.5 0C9.66344 0 2.5 7.16344 2.5 16C2.5 24.8366 9.66344 32 18.5 32Z" fill="#232E33"/>
    <path d="M21.4539 16.0844C21.1114 17.6107 20.331 18.9903 19.1935 20.0763C19.4748 20.3282 19.7782 20.5582 20.0937 20.7661C20.1011 20.7587 20.1084 20.7538 20.1133 20.7465C21.2753 19.5847 22.0997 18.1366 22.4936 16.559C22.6061 16.1065 22.6868 15.6344 22.7284 15.1623C22.7529 14.8908 22.7651 14.6168 22.7651 14.3527C22.7651 11.4762 21.3781 8.74644 19.0565 7.04892L19.0443 7.03914L19.0027 7L18.9489 7.04892C16.6249 8.74644 15.2402 11.4762 15.2402 14.3527C15.2402 14.5581 15.2476 14.7685 15.2623 14.9813C15.6194 14.8247 15.9888 14.6902 16.3631 14.5777C16.3607 14.497 16.3582 14.4236 16.3582 14.3527C16.3582 12.1488 17.2903 10.0257 18.9146 8.5263L19.0027 8.44558L19.0907 8.5263C20.7151 10.0257 21.6447 12.1488 21.6447 14.3527C21.6447 14.453 21.6423 14.5606 21.6374 14.6804C21.6178 15.1525 21.5566 15.6246 21.4539 16.0844Z" fill="url(#paint0_radial_120_2)"/>
    <path d="M12.9576 16.7718C11.2941 18.2639 10.2471 20.3112 10.0073 22.5321L10 22.5933L10.0636 22.6251C11.2232 23.1363 12.4512 23.3956 13.7184 23.3956C15.5409 23.3956 17.2827 22.8624 18.775 21.8546C18.4618 21.6247 18.1609 21.3703 17.8747 21.0988C16.6271 21.8693 15.1911 22.2778 13.7184 22.2778C12.9405 22.2778 12.1723 22.1652 11.4311 21.9402L11.3161 21.906L11.2403 21.884L11.255 21.8179L11.2819 21.7005C11.8029 19.4502 13.2756 17.5448 15.3208 16.4759C15.7415 16.2557 16.1843 16.0723 16.6369 15.9328C17.4001 15.6956 18.1952 15.5757 19 15.5757C19.7584 15.5757 20.507 15.6809 21.2262 15.8913C21.302 15.5244 21.3485 15.1477 21.3705 14.771C20.5975 14.5606 19.8024 14.4555 19 14.4555C18.1634 14.4555 17.3316 14.5704 16.5292 14.7979C16.0742 14.9275 15.6265 15.0939 15.1984 15.292C14.3814 15.6711 13.6279 16.1677 12.9576 16.7718Z" fill="url(#paint1_radial_120_2)"/>
    <path d="M24.2813 23.3956C25.5484 23.3956 26.7789 23.1363 27.9385 22.6226L27.9434 22.6202L27.9997 22.5982L27.9923 22.5321C27.7526 20.3087 26.7056 18.2639 25.0421 16.7718C24.4158 16.2092 23.7186 15.7396 22.9651 15.3727C22.9235 15.764 22.8575 16.1505 22.767 16.5247C24.7876 17.6157 26.231 19.5186 26.7325 21.7641L26.7594 21.8815L26.6444 21.9182C25.8811 22.1579 25.0861 22.2777 24.2813 22.2777C22.7743 22.2777 21.3065 21.8497 20.0393 21.0425C19.6381 20.7881 19.259 20.4946 18.9116 20.1742C17.752 19.1053 16.9496 17.7404 16.5802 16.2239C16.2206 16.3437 15.8708 16.4881 15.5332 16.6593C15.9368 18.1978 16.749 19.6092 17.8866 20.7465C17.9086 20.7686 17.933 20.7906 17.9551 20.815L17.9795 20.8395C18.322 21.1721 18.6914 21.4779 19.073 21.7494C20.5995 22.8256 22.4 23.3956 24.2813 23.3956Z" fill="url(#paint2_radial_120_2)"/>
    <path d="M46 32C54.8366 32 62 24.8366 62 16C62 7.16344 54.8366 0 46 0C37.1634 0 30 7.16344 30 16C30 24.8366 37.1634 32 46 32Z" fill="#F5AC37"/>
    <path d="M46.5898 17.1298H52.6695C52.7991 17.1298 52.8603 17.1298 52.8697 16.9599C52.9193 16.3414 52.9193 15.7193 52.8697 15.1001C52.8697 14.9799 52.8099 14.9302 52.6796 14.9302H40.5799C40.4301 14.9302 40.3898 14.9799 40.3898 15.1203V16.9001C40.3898 17.1298 40.3898 17.1298 40.6295 17.1298H46.5898ZM52.1907 12.8501C52.208 12.8047 52.208 12.7551 52.1907 12.7104C52.0892 12.4894 51.9689 12.2784 51.8293 12.0804C51.619 11.742 51.3713 11.4302 51.0891 11.1502C50.9559 10.981 50.8018 10.829 50.629 10.7002C49.7636 9.96359 48.7347 9.44231 47.6287 9.18022C47.0707 9.05494 46.5005 8.99518 45.9288 9.00022H40.559C40.4092 9.00022 40.3891 9.05998 40.3891 9.1903V12.7399C40.3891 12.8897 40.3891 12.93 40.5791 12.93H52.1187C52.1187 12.93 52.2188 12.9099 52.2389 12.8501H52.19H52.1907ZM52.1907 19.2099C52.0208 19.1912 51.8494 19.1912 51.6795 19.2099H40.5899C40.4402 19.2099 40.3898 19.2099 40.3898 19.4101V22.8805C40.3898 23.0404 40.3898 23.0807 40.5899 23.0807H45.7099C45.9547 23.0994 46.1995 23.0821 46.4393 23.031C47.1823 22.9777 47.9131 22.8164 48.6101 22.5508C48.8635 22.4629 49.1083 22.3484 49.3395 22.2109H49.4093C50.6096 21.5867 51.5844 20.606 52.1993 19.4022C52.1993 19.4022 52.2692 19.251 52.1907 19.2114V19.2099ZM38.3802 24.88V24.8202V22.4903V21.7004V19.3503C38.3802 19.22 38.3802 19.2006 38.2204 19.2006H36.0503C35.9301 19.2006 35.8804 19.2006 35.8804 19.0407V17.1406H38.2002C38.3298 17.1406 38.3802 17.1406 38.3802 16.9707V15.0908C38.3802 14.9705 38.3802 14.941 38.2204 14.941H36.0503C35.9301 14.941 35.8804 14.941 35.8804 14.7812V13.0215C35.8804 12.9113 35.8804 12.8818 36.0402 12.8818H38.1902C38.3399 12.8818 38.3802 12.8818 38.3802 12.6917V7.30172C38.3802 7.14188 38.3802 7.10156 38.5804 7.10156H46.08C46.6243 7.12316 47.165 7.18292 47.7 7.28156C48.8023 7.48533 49.8615 7.87917 50.8299 8.4415C51.4721 8.8195 52.0633 9.27598 52.5896 9.80159C52.9856 10.2127 53.3427 10.6577 53.6595 11.1314C53.9742 11.6117 54.2355 12.1251 54.4407 12.6615C54.4659 12.8011 54.5998 12.8955 54.7395 12.8717H56.5295C56.7591 12.8717 56.7591 12.8717 56.7692 13.092V14.7322C56.7692 14.892 56.7095 14.9324 56.5489 14.9324H55.1686C55.029 14.9324 54.9886 14.9324 54.9987 15.1124C55.0534 15.7215 55.0534 16.3328 54.9987 16.9419C54.9987 17.1118 54.9987 17.132 55.1895 17.132H56.7685C56.8383 17.222 56.7685 17.312 56.7685 17.4027C56.7786 17.5186 56.7786 17.636 56.7685 17.7519V18.9622C56.7685 19.1322 56.7188 19.1826 56.5683 19.1826H54.6783C54.5466 19.1574 54.4184 19.2416 54.3882 19.3726C53.9382 20.5427 53.2181 21.5917 52.2879 22.4327C51.9481 22.7387 51.5909 23.0267 51.218 23.2924C50.8176 23.5228 50.4281 23.7625 50.0177 23.9526C49.2624 24.2925 48.4704 24.543 47.6575 24.7021C46.8857 24.8404 46.103 24.903 45.3175 24.8922H38.3774V24.8821L38.3802 24.88Z" fill="#FEFEFD"/>
    <defs>
        <radialGradient id="paint0_radial_120_2" cx="0" cy="0" r="1" gradientUnits="userSpaceOnUse" gradientTransform="translate(19.0029 13.8809) scale(3.16442 8.99416)">
            <stop stop-color="#FCD295"/>
            <stop offset="0.1833" stop-color="#FDD192"/>
            <stop offset="0.3319" stop-color="#FDCE88"/>
            <stop offset="0.4678" stop-color="#FEC877"/>
            <stop offset="0.5524" stop-color="#FFC368"/>
            <stop offset="0.7171" stop-color="#FFC265"/>
            <stop offset="0.8505" stop-color="#FFC05B"/>
            <stop offset="0.9725" stop-color="#FFBD4A"/>
            <stop offset="1" stop-color="#FFBC45"/>
        </radialGradient>
        <radialGradient id="paint1_radial_120_2" cx="0" cy="0" r="1" gradientUnits="userSpaceOnUse" gradientTransform="translate(15.6855 18.9241) scale(4.78162 5.84109)">
            <stop stop-color="#FCD295"/>
            <stop offset="0.1833" stop-color="#FDD192"/>
            <stop offset="0.3319" stop-color="#FDCE88"/>
            <stop offset="0.4678" stop-color="#FEC877"/>
            <stop offset="0.5524" stop-color="#FFC368"/>
            <stop offset="0.7171" stop-color="#FFC265"/>
            <stop offset="0.8505" stop-color="#FFC05B"/>
            <stop offset="0.9725" stop-color="#FFBD4A"/>
            <stop offset="1" stop-color="#FFBC45"/>
        </radialGradient>
        <radialGradient id="paint2_radial_120_2" cx="0" cy="0" r="1" gradientUnits="userSpaceOnUse" gradientTransform="translate(21.7667 19.3829) scale(5.24249 5.2418)">
            <stop stop-color="#FCD295"/>
            <stop offset="0.1833" stop-color="#FDD192"/>
            <stop offset="0.3319" stop-color="#FDCE88"/>
            <stop offset="0.4678" stop-color="#FEC877"/>
            <stop offset="0.5524" stop-color="#FFC368"/>
            <stop offset="0.7171" stop-color="#FFC265"/>
            <stop offset="0.8505" stop-color="#FFC05B"/>
            <stop offset="0.9725" stop-color="#FFBD4A"/>
            <stop offset="1" stop-color="#FFBC45"/>
        </radialGradient>
    </defs>
</svg>
