<svg width="60" height="32" viewBox="0 0 60 32" fill="none" xmlns="http://www.w3.org/2000/svg">
    <path d="M16 32C24.8366 32 32 24.8366 32 16C32 7.16344 24.8366 0 16 0C7.16344 0 0 7.16344 0 16C0 24.8366 7.16344 32 16 32Z" fill="#232E33"/>
    <path d="M18.9539 16.0844C18.6114 17.6107 17.831 18.9903 16.6935 20.0763C16.9748 20.3282 17.2782 20.5582 17.5937 20.7661C17.6011 20.7587 17.6084 20.7538 17.6133 20.7465C18.7753 19.5847 19.5997 18.1366 19.9936 16.559C20.1061 16.1065 20.1868 15.6344 20.2284 15.1623C20.2529 14.8908 20.2651 14.6168 20.2651 14.3527C20.2651 11.4762 18.8781 8.74644 16.5565 7.04892L16.5443 7.03914L16.5027 7L16.4489 7.04892C14.1249 8.74644 12.7402 11.4762 12.7402 14.3527C12.7402 14.5581 12.7476 14.7685 12.7623 14.9813C13.1194 14.8247 13.4888 14.6902 13.8631 14.5777C13.8607 14.497 13.8582 14.4236 13.8582 14.3527C13.8582 12.1488 14.7903 10.0257 16.4146 8.5263L16.5027 8.44558L16.5907 8.5263C18.2151 10.0257 19.1447 12.1488 19.1447 14.3527C19.1447 14.453 19.1423 14.5606 19.1374 14.6804C19.1178 15.1525 19.0566 15.6246 18.9539 16.0844Z" fill="url(#paint0_radial_0_1)"/>
    <path d="M10.4576 16.7718C8.7941 18.2639 7.7471 20.3112 7.5073 22.5321L7.5 22.5933L7.5636 22.6251C8.7232 23.1363 9.9512 23.3956 11.2184 23.3956C13.0409 23.3956 14.7827 22.8624 16.275 21.8546C15.9618 21.6247 15.6609 21.3703 15.3747 21.0988C14.1271 21.8693 12.6911 22.2778 11.2184 22.2778C10.4405 22.2778 9.6723 22.1652 8.9311 21.9402L8.8161 21.906L8.7403 21.884L8.755 21.8179L8.7819 21.7005C9.3029 19.4502 10.7756 17.5448 12.8208 16.4759C13.2415 16.2557 13.6843 16.0723 14.1369 15.9328C14.9001 15.6956 15.6952 15.5757 16.5 15.5757C17.2584 15.5757 18.007 15.6809 18.7262 15.8913C18.802 15.5244 18.8485 15.1477 18.8705 14.771C18.0975 14.5606 17.3024 14.4555 16.5 14.4555C15.6634 14.4555 14.8316 14.5704 14.0292 14.7979C13.5742 14.9275 13.1265 15.0939 12.6984 15.292C11.8814 15.6711 11.1279 16.1677 10.4576 16.7718Z" fill="url(#paint1_radial_0_1)"/>
    <path d="M21.7813 23.3956C23.0484 23.3956 24.2789 23.1363 25.4385 22.6226L25.4434 22.6202L25.4997 22.5982L25.4923 22.5321C25.2526 20.3087 24.2056 18.2639 22.5421 16.7718C21.9158 16.2092 21.2186 15.7396 20.4651 15.3727C20.4235 15.764 20.3575 16.1505 20.267 16.5247C22.2876 17.6157 23.731 19.5186 24.2325 21.7641L24.2594 21.8815L24.1444 21.9182C23.3811 22.1579 22.5861 22.2777 21.7813 22.2777C20.2743 22.2777 18.8065 21.8497 17.5393 21.0425C17.1381 20.7881 16.759 20.4946 16.4116 20.1742C15.252 19.1053 14.4496 17.7404 14.0802 16.2239C13.7206 16.3437 13.3708 16.4881 13.0332 16.6593C13.4368 18.1978 14.249 19.6092 15.3866 20.7465C15.4086 20.7686 15.433 20.7906 15.4551 20.815L15.4795 20.8395C15.822 21.1721 16.1914 21.4779 16.573 21.7494C18.0995 22.8256 19.9 23.3956 21.7813 23.3956Z" fill="url(#paint2_radial_0_1)"/>
    <path d="M44 32C52.8366 32 60 24.8366 60 16C60 7.16344 52.8366 0 44 0C35.1634 0 28 7.16344 28 16C28 24.8366 35.1634 32 44 32Z" fill="#333333"/>
    <path fill-rule="evenodd" clip-rule="evenodd" d="M50.4335 12.1225L53.0379 9.39413L50.7124 7.17438L48.1854 9.82176C47.7776 9.55175 47.344 9.32085 46.89 9.13281C45.9626 8.74867 44.9687 8.55096 43.9649 8.55096C42.9611 8.55096 41.9671 8.74868 41.0398 9.13281C40.6248 9.30468 40.2269 9.51237 39.8502 9.75299L37.1771 7.20148L34.9574 9.52693L37.5647 12.0157C37.3064 12.4113 37.0847 12.831 36.903 13.2696C36.5189 14.1969 36.3212 15.1909 36.3212 16.1947C36.3212 17.1985 36.5189 18.1924 36.903 19.1198C37.0678 19.5176 37.2654 19.8998 37.4935 20.2625L34.745 23.1419L37.0704 25.3617L39.7402 22.5648C40.1491 22.836 40.5842 23.0679 41.0398 23.2566C41.9671 23.6407 42.9611 23.8384 43.9649 23.8384C44.9687 23.8384 45.9626 23.6407 46.89 23.2566C47.309 23.083 47.7107 22.8729 48.0907 22.6293L50.9248 25.3345L53.1446 23.0091L50.3722 20.3628C50.6275 19.9704 50.8468 19.5544 51.0268 19.1198C51.4109 18.1924 51.6086 17.1985 51.6086 16.1947C51.6086 15.1909 51.4109 14.1969 51.0268 13.2696C50.8613 12.8702 50.6627 12.4865 50.4335 12.1225ZM43.9649 11.551C43.3551 11.551 42.7512 11.6711 42.1878 11.9044C41.6244 12.1378 41.1125 12.4799 40.6813 12.9111C40.2501 13.3423 39.908 13.8542 39.6746 14.4176C39.4413 14.981 39.3212 15.5849 39.3212 16.1947C39.3212 16.8045 39.4413 17.4084 39.6746 17.9718C39.908 18.5352 40.2501 19.0471 40.6813 19.4783C41.1125 19.9095 41.6244 20.2516 42.1878 20.4849C42.7512 20.7183 43.3551 20.8384 43.9649 20.8384C44.5747 20.8384 45.1786 20.7183 45.742 20.4849C46.3054 20.2516 46.8173 19.9095 47.2485 19.4783C47.6797 19.0471 48.0218 18.5352 48.2551 17.9718C48.4885 17.4084 48.6086 16.8045 48.6086 16.1947C48.6086 15.5849 48.4885 14.981 48.2551 14.4176C48.0218 13.8542 47.6797 13.3423 47.2485 12.9111C46.8173 12.4799 46.3054 12.1378 45.742 11.9044C45.1786 11.6711 44.5747 11.551 43.9649 11.551Z" fill="white"/>
    <defs>
        <radialGradient id="paint0_radial_0_1" cx="0" cy="0" r="1" gradientUnits="userSpaceOnUse" gradientTransform="translate(16.5029 13.8809) scale(3.16442 8.99416)">
            <stop stop-color="#FCD295"/>
            <stop offset="0.1833" stop-color="#FDD192"/>
            <stop offset="0.3319" stop-color="#FDCE88"/>
            <stop offset="0.4678" stop-color="#FEC877"/>
            <stop offset="0.5524" stop-color="#FFC368"/>
            <stop offset="0.7171" stop-color="#FFC265"/>
            <stop offset="0.8505" stop-color="#FFC05B"/>
            <stop offset="0.9725" stop-color="#FFBD4A"/>
            <stop offset="1" stop-color="#FFBC45"/>
        </radialGradient>
        <radialGradient id="paint1_radial_0_1" cx="0" cy="0" r="1" gradientUnits="userSpaceOnUse" gradientTransform="translate(13.1855 18.9241) scale(4.78162 5.84109)">
            <stop stop-color="#FCD295"/>
            <stop offset="0.1833" stop-color="#FDD192"/>
            <stop offset="0.3319" stop-color="#FDCE88"/>
            <stop offset="0.4678" stop-color="#FEC877"/>
            <stop offset="0.5524" stop-color="#FFC368"/>
            <stop offset="0.7171" stop-color="#FFC265"/>
            <stop offset="0.8505" stop-color="#FFC05B"/>
            <stop offset="0.9725" stop-color="#FFBD4A"/>
            <stop offset="1" stop-color="#FFBC45"/>
        </radialGradient>
        <radialGradient id="paint2_radial_0_1" cx="0" cy="0" r="1" gradientUnits="userSpaceOnUse" gradientTransform="translate(19.2667 19.3829) scale(5.24249 5.2418)">
            <stop stop-color="#FCD295"/>
            <stop offset="0.1833" stop-color="#FDD192"/>
            <stop offset="0.3319" stop-color="#FDCE88"/>
            <stop offset="0.4678" stop-color="#FEC877"/>
            <stop offset="0.5524" stop-color="#FFC368"/>
            <stop offset="0.7171" stop-color="#FFC265"/>
            <stop offset="0.8505" stop-color="#FFC05B"/>
            <stop offset="0.9725" stop-color="#FFBD4A"/>
            <stop offset="1" stop-color="#FFBC45"/>
        </radialGradient>
    </defs>
</svg>

