<svg width="60" height="32" viewBox="0 0 60 32" fill="none" xmlns="http://www.w3.org/2000/svg">
  <path d="M16 32C24.8366 32 32 24.8366 32 16C32 7.16344 24.8366 0 16 0C7.16344 0 0 7.16344 0 16C0 24.8366 7.16344 32 16 32Z" fill="#232E33"/>
  <path d="M18.9539 16.0844C18.6114 17.6107 17.831 18.9903 16.6935 20.0763C16.9748 20.3282 17.2782 20.5582 17.5937 20.7661C17.6011 20.7587 17.6084 20.7538 17.6133 20.7465C18.7753 19.5847 19.5997 18.1366 19.9936 16.559C20.1061 16.1065 20.1868 15.6344 20.2284 15.1623C20.2529 14.8908 20.2651 14.6168 20.2651 14.3527C20.2651 11.4762 18.8781 8.74644 16.5565 7.04892L16.5443 7.03914L16.5027 7L16.4489 7.04892C14.1249 8.74644 12.7402 11.4762 12.7402 14.3527C12.7402 14.5581 12.7476 14.7685 12.7623 14.9813C13.1194 14.8247 13.4888 14.6902 13.8631 14.5777C13.8607 14.497 13.8582 14.4236 13.8582 14.3527C13.8582 12.1488 14.7903 10.0257 16.4146 8.5263L16.5027 8.44558L16.5907 8.5263C18.2151 10.0257 19.1447 12.1488 19.1447 14.3527C19.1447 14.453 19.1423 14.5606 19.1374 14.6804C19.1178 15.1525 19.0566 15.6246 18.9539 16.0844Z" fill="url(#paint0_radial_0_1)"/>
  <path d="M10.4576 16.7718C8.7941 18.2639 7.7471 20.3112 7.5073 22.5321L7.5 22.5933L7.5636 22.6251C8.7232 23.1363 9.9512 23.3956 11.2184 23.3956C13.0409 23.3956 14.7827 22.8624 16.275 21.8546C15.9618 21.6247 15.6609 21.3703 15.3747 21.0988C14.1271 21.8693 12.6911 22.2778 11.2184 22.2778C10.4405 22.2778 9.6723 22.1652 8.9311 21.9402L8.8161 21.906L8.7403 21.884L8.755 21.8179L8.7819 21.7005C9.3029 19.4502 10.7756 17.5448 12.8208 16.4759C13.2415 16.2557 13.6843 16.0723 14.1369 15.9328C14.9001 15.6956 15.6952 15.5757 16.5 15.5757C17.2584 15.5757 18.007 15.6809 18.7262 15.8913C18.802 15.5244 18.8485 15.1477 18.8705 14.771C18.0975 14.5606 17.3024 14.4555 16.5 14.4555C15.6634 14.4555 14.8316 14.5704 14.0292 14.7979C13.5742 14.9275 13.1265 15.0939 12.6984 15.292C11.8814 15.6711 11.1279 16.1677 10.4576 16.7718Z" fill="url(#paint1_radial_0_1)"/>
  <path d="M21.7813 23.3956C23.0484 23.3956 24.2789 23.1363 25.4385 22.6226L25.4434 22.6202L25.4997 22.5982L25.4923 22.5321C25.2526 20.3087 24.2056 18.2639 22.5421 16.7718C21.9158 16.2092 21.2186 15.7396 20.4651 15.3727C20.4235 15.764 20.3575 16.1505 20.267 16.5247C22.2876 17.6157 23.731 19.5186 24.2325 21.7641L24.2594 21.8815L24.1444 21.9182C23.3811 22.1579 22.5861 22.2777 21.7813 22.2777C20.2743 22.2777 18.8065 21.8497 17.5393 21.0425C17.1381 20.7881 16.759 20.4946 16.4116 20.1742C15.252 19.1053 14.4496 17.7404 14.0802 16.2239C13.7206 16.3437 13.3708 16.4881 13.0332 16.6593C13.4368 18.1978 14.249 19.6092 15.3866 20.7465C15.4086 20.7686 15.433 20.7906 15.4551 20.815L15.4795 20.8395C15.822 21.1721 16.1914 21.4779 16.573 21.7494C18.0995 22.8256 19.9 23.3956 21.7813 23.3956Z" fill="url(#paint2_radial_0_1)"/>
  <path d="M16 32C24.8366 32 32 24.8366 32 16C32 7.16344 24.8366 0 16 0C7.16344 0 0 7.16344 0 16C0 24.8366 7.16344 32 16 32Z" fill="#232E33"/>
  <path d="M18.9539 16.0844C18.6114 17.6107 17.831 18.9903 16.6935 20.0763C16.9748 20.3282 17.2782 20.5582 17.5937 20.7661C17.6011 20.7587 17.6084 20.7538 17.6133 20.7465C18.7753 19.5847 19.5997 18.1366 19.9936 16.559C20.1061 16.1065 20.1868 15.6344 20.2284 15.1623C20.2529 14.8908 20.2651 14.6168 20.2651 14.3527C20.2651 11.4762 18.8781 8.74644 16.5565 7.04892L16.5443 7.03914L16.5027 7L16.4489 7.04892C14.1249 8.74644 12.7402 11.4762 12.7402 14.3527C12.7402 14.5581 12.7476 14.7685 12.7623 14.9813C13.1194 14.8247 13.4888 14.6902 13.8631 14.5777C13.8607 14.497 13.8582 14.4236 13.8582 14.3527C13.8582 12.1488 14.7903 10.0257 16.4146 8.5263L16.5027 8.44558L16.5907 8.5263C18.2151 10.0257 19.1447 12.1488 19.1447 14.3527C19.1447 14.453 19.1423 14.5606 19.1374 14.6804C19.1178 15.1525 19.0566 15.6246 18.9539 16.0844Z" fill="url(#paint3_radial_0_1)"/>
  <path d="M10.4576 16.7718C8.7941 18.2639 7.7471 20.3112 7.5073 22.5321L7.5 22.5933L7.5636 22.6251C8.7232 23.1363 9.9512 23.3956 11.2184 23.3956C13.0409 23.3956 14.7827 22.8624 16.275 21.8546C15.9618 21.6247 15.6609 21.3703 15.3747 21.0988C14.1271 21.8693 12.6911 22.2778 11.2184 22.2778C10.4405 22.2778 9.6723 22.1652 8.9311 21.9402L8.8161 21.906L8.7403 21.884L8.755 21.8179L8.7819 21.7005C9.3029 19.4502 10.7756 17.5448 12.8208 16.4759C13.2415 16.2557 13.6843 16.0723 14.1369 15.9328C14.9001 15.6956 15.6952 15.5757 16.5 15.5757C17.2584 15.5757 18.007 15.6809 18.7262 15.8913C18.802 15.5244 18.8485 15.1477 18.8705 14.771C18.0975 14.5606 17.3024 14.4555 16.5 14.4555C15.6634 14.4555 14.8316 14.5704 14.0292 14.7979C13.5742 14.9275 13.1265 15.0939 12.6984 15.292C11.8814 15.6711 11.1279 16.1677 10.4576 16.7718Z" fill="url(#paint4_radial_0_1)"/>
  <path d="M21.7813 23.3956C23.0484 23.3956 24.2789 23.1363 25.4385 22.6226L25.4434 22.6202L25.4997 22.5982L25.4923 22.5321C25.2526 20.3087 24.2056 18.2639 22.5421 16.7718C21.9158 16.2092 21.2186 15.7396 20.4651 15.3727C20.4235 15.764 20.3575 16.1505 20.267 16.5247C22.2876 17.6157 23.731 19.5186 24.2325 21.7641L24.2594 21.8815L24.1444 21.9182C23.3811 22.1579 22.5861 22.2777 21.7813 22.2777C20.2743 22.2777 18.8065 21.8497 17.5393 21.0425C17.1381 20.7881 16.759 20.4946 16.4116 20.1742C15.252 19.1053 14.4496 17.7404 14.0802 16.2239C13.7206 16.3437 13.3708 16.4881 13.0332 16.6593C13.4368 18.1978 14.249 19.6092 15.3866 20.7465C15.4086 20.7686 15.433 20.7906 15.4551 20.815L15.4795 20.8395C15.822 21.1721 16.1914 21.4779 16.573 21.7494C18.0995 22.8256 19.9 23.3956 21.7813 23.3956Z" fill="url(#paint5_radial_0_1)"/>
  <path d="M16 32C24.8366 32 32 24.8366 32 16C32 7.16344 24.8366 0 16 0C7.16344 0 0 7.16344 0 16C0 24.8366 7.16344 32 16 32Z" fill="#232E33"/>
  <path d="M18.9539 16.0844C18.6114 17.6107 17.831 18.9903 16.6935 20.0763C16.9748 20.3282 17.2782 20.5582 17.5937 20.7661C17.6011 20.7587 17.6084 20.7538 17.6133 20.7465C18.7753 19.5847 19.5997 18.1366 19.9936 16.559C20.1061 16.1065 20.1868 15.6344 20.2284 15.1623C20.2529 14.8908 20.2651 14.6168 20.2651 14.3527C20.2651 11.4762 18.8781 8.74644 16.5565 7.04892L16.5443 7.03914L16.5027 7L16.4489 7.04892C14.1249 8.74644 12.7402 11.4762 12.7402 14.3527C12.7402 14.5581 12.7476 14.7685 12.7623 14.9813C13.1194 14.8247 13.4888 14.6902 13.8631 14.5777C13.8607 14.497 13.8582 14.4236 13.8582 14.3527C13.8582 12.1488 14.7903 10.0257 16.4146 8.5263L16.5027 8.44558L16.5907 8.5263C18.2151 10.0257 19.1447 12.1488 19.1447 14.3527C19.1447 14.453 19.1423 14.5606 19.1374 14.6804C19.1178 15.1525 19.0566 15.6246 18.9539 16.0844Z" fill="url(#paint6_radial_0_1)"/>
  <path d="M10.4576 16.7718C8.7941 18.2639 7.7471 20.3112 7.5073 22.5321L7.5 22.5933L7.5636 22.6251C8.7232 23.1363 9.9512 23.3956 11.2184 23.3956C13.0409 23.3956 14.7827 22.8624 16.275 21.8546C15.9618 21.6247 15.6609 21.3703 15.3747 21.0988C14.1271 21.8693 12.6911 22.2778 11.2184 22.2778C10.4405 22.2778 9.6723 22.1652 8.9311 21.9402L8.8161 21.906L8.7403 21.884L8.755 21.8179L8.7819 21.7005C9.3029 19.4502 10.7756 17.5448 12.8208 16.4759C13.2415 16.2557 13.6843 16.0723 14.1369 15.9328C14.9001 15.6956 15.6952 15.5757 16.5 15.5757C17.2584 15.5757 18.007 15.6809 18.7262 15.8913C18.802 15.5244 18.8485 15.1477 18.8705 14.771C18.0975 14.5606 17.3024 14.4555 16.5 14.4555C15.6634 14.4555 14.8316 14.5704 14.0292 14.7979C13.5742 14.9275 13.1265 15.0939 12.6984 15.292C11.8814 15.6711 11.1279 16.1677 10.4576 16.7718Z" fill="url(#paint7_radial_0_1)"/>
  <path d="M21.7813 23.3956C23.0484 23.3956 24.2789 23.1363 25.4385 22.6226L25.4434 22.6202L25.4997 22.5982L25.4923 22.5321C25.2526 20.3087 24.2056 18.2639 22.5421 16.7718C21.9158 16.2092 21.2186 15.7396 20.4651 15.3727C20.4235 15.764 20.3575 16.1505 20.267 16.5247C22.2876 17.6157 23.731 19.5186 24.2325 21.7641L24.2594 21.8815L24.1444 21.9182C23.3811 22.1579 22.5861 22.2777 21.7813 22.2777C20.2743 22.2777 18.8065 21.8497 17.5393 21.0425C17.1381 20.7881 16.759 20.4946 16.4116 20.1742C15.252 19.1053 14.4496 17.7404 14.0802 16.2239C13.7206 16.3437 13.3708 16.4881 13.0332 16.6593C13.4368 18.1978 14.249 19.6092 15.3866 20.7465C15.4086 20.7686 15.433 20.7906 15.4551 20.815L15.4795 20.8395C15.822 21.1721 16.1914 21.4779 16.573 21.7494C18.0995 22.8256 19.9 23.3956 21.7813 23.3956Z" fill="url(#paint8_radial_0_1)"/>
  <path d="M59.3628 20.4853C58.5339 23.3431 56.9235 25.9127 54.713 27.9046C52.5026 29.8965 49.7798 31.2316 46.8514 31.7595V27.206C47.9313 26.7946 48.9031 26.1423 49.6928 25.2987C50.1315 24.8281 50.5065 24.3018 50.8082 23.7335C51.3824 22.6508 51.6796 21.4428 51.6733 20.2173C51.6733 16.1918 48.7672 14.5823 46.0426 13.3887L44.6629 12.7789C43.1877 12.1173 42.0593 11.5287 42.0593 10.5213C42.0593 9.1289 43.2745 8.38055 44.4206 8.38055C45.6403 8.38055 46.3321 8.83061 47.063 10.0975L47.6295 11.0791L51.2752 8.7396L50.8002 7.85748C49.9641 6.2633 48.5523 5.0474 46.8517 4.45705V0.280518C47.2062 0.341025 47.5565 0.418785 47.9113 0.509797C47.9458 0.518548 47.9848 0.527049 48.0238 0.5348C48.0634 0.542321 48.1024 0.552428 48.1406 0.565054C48.1524 0.566421 48.164 0.569364 48.1751 0.573805C48.2704 0.598808 48.3696 0.621311 48.4691 0.651565C50.4868 1.2385 52.3691 2.21711 54.0085 3.53152C55.6479 4.84593 57.0124 6.4704 58.0239 8.31216C59.0355 10.1539 59.6744 12.1769 59.9041 14.2656C60.1339 16.3543 59.9499 18.4678 59.3628 20.4853Z" fill="#745DDF"/>
  <path d="M47.1972 20.4381C47.1972 22.2719 45.5407 23.4047 44.0098 23.4047C42.1718 23.4047 41.1209 21.8868 40.9176 20.4769L40.7446 19.253L36.3336 20.4951L36.5336 21.4812C37.1649 24.5906 39.2884 26.8267 42.1731 27.5013V31.9081C41.3905 31.8165 40.6158 31.6676 39.855 31.4625C39.747 31.4375 39.643 31.4063 39.535 31.376C36.2101 30.4079 33.2887 28.3878 31.2089 25.6189C29.1292 22.8499 28.0033 19.4813 28 16.0183L28 0.643843C28.0002 0.476464 28.0668 0.315998 28.1851 0.197644C28.3035 0.0792895 28.464 0.0127107 28.6313 0.0125122H42.1721V4.41507C40.5875 4.87387 39.2374 5.91926 38.3966 7.33845C37.8573 8.2823 37.5768 9.35181 37.5835 10.4388V10.5254C37.6262 14.1153 40.2648 15.616 42.7559 16.7446L44.002 17.2852L44.1058 17.3327C46.0816 18.2368 47.1972 18.8292 47.1972 20.4381V20.4381Z" fill="#2EB6EA"/>
  <path d="M51.6732 20.2173C51.6796 21.4427 51.3825 22.6506 50.8084 23.7333C50.5066 24.3017 50.1314 24.828 49.6925 25.2987C48.9027 26.1421 47.9309 26.7943 46.8511 27.2054L46.8531 31.781L45.5742 31.894C45.5742 31.894 42.8316 31.9763 42.1785 31.894L42.1718 27.5002C39.2874 26.8254 37.1639 24.5896 36.5325 21.4797L36.3325 20.4936L40.7436 19.2524L40.9166 20.4763C41.1209 21.8868 42.1718 23.405 44.0097 23.405C45.5407 23.405 47.1972 22.2718 47.1972 20.4383C47.1972 18.8296 46.0813 18.2381 44.105 17.3332L44.0012 17.2857L42.7558 16.7451C40.2648 15.616 37.6267 14.1153 37.5834 10.5258V10.4393C37.5768 9.35228 37.8573 8.28277 38.3965 7.33892C39.2372 5.91959 40.5873 4.87401 42.1718 4.41504V0.00798297C45.0561 -0.0165202 45.2769 0.000482025 46.8511 0.277017V4.4583C48.5517 5.04865 49.9635 6.26455 50.7996 7.85873L51.2747 8.74085L47.6297 11.0784L47.0631 10.0968C46.3323 8.82961 45.6402 8.3798 44.4208 8.3798C43.2747 8.3798 42.0595 9.1279 42.0595 10.5206C42.0595 11.5282 43.1881 12.1163 44.6631 12.7781L46.0423 13.3887C48.7676 14.5823 51.6732 16.191 51.6732 20.2173Z" fill="white"/>
  <defs>
    <radialGradient id="paint0_radial_0_1" cx="0" cy="0" r="1" gradientUnits="userSpaceOnUse" gradientTransform="translate(16.5029 13.8809) scale(3.16442 8.99416)">
      <stop stop-color="#FCD295"/>
      <stop offset="0.1833" stop-color="#FDD192"/>
      <stop offset="0.3319" stop-color="#FDCE88"/>
      <stop offset="0.4678" stop-color="#FEC877"/>
      <stop offset="0.5524" stop-color="#FFC368"/>
      <stop offset="0.7171" stop-color="#FFC265"/>
      <stop offset="0.8505" stop-color="#FFC05B"/>
      <stop offset="0.9725" stop-color="#FFBD4A"/>
      <stop offset="1" stop-color="#FFBC45"/>
    </radialGradient>
    <radialGradient id="paint1_radial_0_1" cx="0" cy="0" r="1" gradientUnits="userSpaceOnUse" gradientTransform="translate(13.1855 18.9241) scale(4.78162 5.84109)">
      <stop stop-color="#FCD295"/>
      <stop offset="0.1833" stop-color="#FDD192"/>
      <stop offset="0.3319" stop-color="#FDCE88"/>
      <stop offset="0.4678" stop-color="#FEC877"/>
      <stop offset="0.5524" stop-color="#FFC368"/>
      <stop offset="0.7171" stop-color="#FFC265"/>
      <stop offset="0.8505" stop-color="#FFC05B"/>
      <stop offset="0.9725" stop-color="#FFBD4A"/>
      <stop offset="1" stop-color="#FFBC45"/>
    </radialGradient>
    <radialGradient id="paint2_radial_0_1" cx="0" cy="0" r="1" gradientUnits="userSpaceOnUse" gradientTransform="translate(19.2667 19.3829) scale(5.24249 5.2418)">
      <stop stop-color="#FCD295"/>
      <stop offset="0.1833" stop-color="#FDD192"/>
      <stop offset="0.3319" stop-color="#FDCE88"/>
      <stop offset="0.4678" stop-color="#FEC877"/>
      <stop offset="0.5524" stop-color="#FFC368"/>
      <stop offset="0.7171" stop-color="#FFC265"/>
      <stop offset="0.8505" stop-color="#FFC05B"/>
      <stop offset="0.9725" stop-color="#FFBD4A"/>
      <stop offset="1" stop-color="#FFBC45"/>
    </radialGradient>
    <radialGradient id="paint3_radial_0_1" cx="0" cy="0" r="1" gradientUnits="userSpaceOnUse" gradientTransform="translate(16.5029 13.8809) scale(3.16442 8.99416)">
      <stop stop-color="#FCD295"/>
      <stop offset="0.1833" stop-color="#FDD192"/>
      <stop offset="0.3319" stop-color="#FDCE88"/>
      <stop offset="0.4678" stop-color="#FEC877"/>
      <stop offset="0.5524" stop-color="#FFC368"/>
      <stop offset="0.7171" stop-color="#FFC265"/>
      <stop offset="0.8505" stop-color="#FFC05B"/>
      <stop offset="0.9725" stop-color="#FFBD4A"/>
      <stop offset="1" stop-color="#FFBC45"/>
    </radialGradient>
    <radialGradient id="paint4_radial_0_1" cx="0" cy="0" r="1" gradientUnits="userSpaceOnUse" gradientTransform="translate(13.1855 18.9241) scale(4.78162 5.84109)">
      <stop stop-color="#FCD295"/>
      <stop offset="0.1833" stop-color="#FDD192"/>
      <stop offset="0.3319" stop-color="#FDCE88"/>
      <stop offset="0.4678" stop-color="#FEC877"/>
      <stop offset="0.5524" stop-color="#FFC368"/>
      <stop offset="0.7171" stop-color="#FFC265"/>
      <stop offset="0.8505" stop-color="#FFC05B"/>
      <stop offset="0.9725" stop-color="#FFBD4A"/>
      <stop offset="1" stop-color="#FFBC45"/>
    </radialGradient>
    <radialGradient id="paint5_radial_0_1" cx="0" cy="0" r="1" gradientUnits="userSpaceOnUse" gradientTransform="translate(19.2667 19.3829) scale(5.24249 5.2418)">
      <stop stop-color="#FCD295"/>
      <stop offset="0.1833" stop-color="#FDD192"/>
      <stop offset="0.3319" stop-color="#FDCE88"/>
      <stop offset="0.4678" stop-color="#FEC877"/>
      <stop offset="0.5524" stop-color="#FFC368"/>
      <stop offset="0.7171" stop-color="#FFC265"/>
      <stop offset="0.8505" stop-color="#FFC05B"/>
      <stop offset="0.9725" stop-color="#FFBD4A"/>
      <stop offset="1" stop-color="#FFBC45"/>
    </radialGradient>
    <radialGradient id="paint6_radial_0_1" cx="0" cy="0" r="1" gradientUnits="userSpaceOnUse" gradientTransform="translate(16.5029 13.8809) scale(3.16442 8.99416)">
      <stop stop-color="#FCD295"/>
      <stop offset="0.1833" stop-color="#FDD192"/>
      <stop offset="0.3319" stop-color="#FDCE88"/>
      <stop offset="0.4678" stop-color="#FEC877"/>
      <stop offset="0.5524" stop-color="#FFC368"/>
      <stop offset="0.7171" stop-color="#FFC265"/>
      <stop offset="0.8505" stop-color="#FFC05B"/>
      <stop offset="0.9725" stop-color="#FFBD4A"/>
      <stop offset="1" stop-color="#FFBC45"/>
    </radialGradient>
    <radialGradient id="paint7_radial_0_1" cx="0" cy="0" r="1" gradientUnits="userSpaceOnUse" gradientTransform="translate(13.1855 18.9241) scale(4.78162 5.84109)">
      <stop stop-color="#FCD295"/>
      <stop offset="0.1833" stop-color="#FDD192"/>
      <stop offset="0.3319" stop-color="#FDCE88"/>
      <stop offset="0.4678" stop-color="#FEC877"/>
      <stop offset="0.5524" stop-color="#FFC368"/>
      <stop offset="0.7171" stop-color="#FFC265"/>
      <stop offset="0.8505" stop-color="#FFC05B"/>
      <stop offset="0.9725" stop-color="#FFBD4A"/>
      <stop offset="1" stop-color="#FFBC45"/>
    </radialGradient>
    <radialGradient id="paint8_radial_0_1" cx="0" cy="0" r="1" gradientUnits="userSpaceOnUse" gradientTransform="translate(19.2667 19.3829) scale(5.24249 5.2418)">
      <stop stop-color="#FCD295"/>
      <stop offset="0.1833" stop-color="#FDD192"/>
      <stop offset="0.3319" stop-color="#FDCE88"/>
      <stop offset="0.4678" stop-color="#FEC877"/>
      <stop offset="0.5524" stop-color="#FFC368"/>
      <stop offset="0.7171" stop-color="#FFC265"/>
      <stop offset="0.8505" stop-color="#FFC05B"/>
      <stop offset="0.9725" stop-color="#FFBD4A"/>
      <stop offset="1" stop-color="#FFBC45"/>
    </radialGradient>
  </defs>
</svg>
