<svg width="32" height="32" viewBox="0 0 32 32" fill="none" xmlns="http://www.w3.org/2000/svg">
    <circle cx="16" cy="16" r="16" fill="black"/>
    <path d="M16.8344 16.7002C18.151 16.481 19.3436 15.7764 20.1955 14.696C21.2178 13.3808 21.574 11.6898 21.1713 10.0615C21.1713 10.0615 20.5982 7.74419 20.5672 7.68156V7.66591C20.0561 6.56989 16.695 6.50726 15.9825 6.50726C15.27 6.50726 11.9089 6.56989 11.3978 7.66591V7.68156C11.3668 7.74419 11.3513 7.80682 11.3513 7.86945L10.8402 9.96753C10.422 11.6429 10.7627 13.4278 11.8315 14.7587C12.6679 15.8234 13.845 16.4966 15.1461 16.7158C15.3784 16.7472 15.5333 16.9507 15.5333 17.1856V21.5696C15.5333 22.3995 16.1529 23.0884 16.9738 23.1667C18.089 23.2919 18.6776 23.5581 18.8325 23.699C18.6311 23.9026 17.7018 24.2783 16.0909 24.2783C14.4646 24.2783 13.5352 23.8869 13.3494 23.699C13.4423 23.6207 13.6592 23.4955 14.1083 23.3702C14.3252 23.3076 14.4801 23.104 14.4646 22.8848C14.4491 22.5717 14.1548 22.3838 13.876 22.4621C12.6369 22.8065 12.3736 23.3232 12.3736 23.699C12.3736 23.7616 12.3891 23.8243 12.4046 23.8869C12.6059 24.8107 14.3562 25.2178 16.0754 25.2178C17.9186 25.2178 19.7773 24.7481 19.7773 23.699C19.7773 22.6343 17.8722 22.3212 17.0512 22.2272C16.7105 22.1959 16.4472 21.8984 16.4472 21.554V17.1699C16.4472 16.935 16.6176 16.7315 16.8344 16.7002ZM13.0706 10.7974C12.7918 10.7191 12.4975 10.9226 12.4975 11.2201C12.4665 12.0343 12.7143 12.8485 13.2255 13.5061C13.3804 13.7096 13.3649 14.0228 13.1635 14.1794C13.0861 14.242 12.9776 14.2733 12.8847 14.2733C12.7453 14.2733 12.6059 14.2107 12.513 14.0854C11.6766 12.9894 11.3823 11.5959 11.7076 10.2494L12.2497 8.08865C12.2497 8.073 12.2497 8.073 12.2652 8.05734C12.2652 8.04168 12.2652 8.02602 12.2806 8.02602C12.5285 7.80682 13.8295 7.43105 16.0135 7.43105C17.9031 7.43105 19.1268 7.71288 19.5914 7.93208C19.2662 8.08865 18.5072 8.30786 17.2061 8.4018C16.9583 8.41746 16.757 8.621 16.757 8.87152C16.757 9.13769 16.9738 9.3569 17.2216 9.3569C17.2371 9.3569 17.2371 9.3569 17.2526 9.3569C18.6001 9.26295 19.4365 9.05941 19.9322 8.82455L20.211 9.93622C20.273 10.1711 20.1336 10.4216 19.9167 10.4999C17.6863 11.2827 15.3165 11.3767 13.0706 10.7974Z" fill="white"/>
</svg>
